<svg width="150" height="48" viewBox="0 0 150 48" fill="none" xmlns="http://www.w3.org/2000/svg">
<path d="M47.0512 14.5382C47.1699 14.5382 47.3006 14.5651 47.4193 14.618L43.3365 24.0086H48.1046L46.2083 19.6485L48.0916 15.3422L55.9809 33.452H52.2403L52.2133 33.4121L49.6198 27.446H41.8621L39.2407 33.465H35.5L35.5389 33.3603L43.4552 15.1706C43.6128 14.7886 43.9818 14.5382 44.3908 14.5382H47.0512ZM87.8285 22.2699C87.9472 22.2699 88.039 22.3617 88.039 22.4804C88.039 22.5333 88.0131 22.5732 87.9861 22.6121L85.5362 25.7203H79.5442V30.0276H89.8435V33.465H77.8055C76.8569 33.465 76.0928 32.7009 76.0928 31.7533V22.2699H87.8285ZM59.8922 16.6061C63.976 13.3402 69.9291 14.0115 73.182 18.0943L73.2219 18.1472L70.798 20.7816L70.7451 20.7028C69.6528 19.0559 67.7955 18.0544 65.8064 18.0544C63.8174 18.0684 61.96 19.0559 60.8538 20.7028C59.0363 23.442 59.7874 27.1298 62.5136 28.9473C65.2398 30.7648 68.9276 30.0276 70.7451 27.2745L70.798 27.1957L70.8109 27.2086L73.2219 29.843L73.182 29.8959C72.7481 30.4356 72.2464 30.9493 71.6937 31.3842C67.6109 34.6511 61.6707 33.9787 58.4039 29.8959C55.138 25.8131 55.8094 19.8599 59.8922 16.6061ZM105.214 14.5512C105.478 14.5512 105.715 14.644 105.899 14.8285L113.999 22.9283C114.328 23.2575 114.513 23.6924 114.499 24.1532C114.499 24.6011 114.328 25.0231 114.025 25.3522L112.774 26.5902L106.057 33.3074C105.978 33.3862 105.86 33.3862 105.78 33.3074C105.754 33.2675 105.728 33.2276 105.728 33.1757L105.267 29.2505L110.364 24.1532L104.542 18.3318C104.529 18.3188 104.516 18.3188 104.516 18.3058L102.711 16.5003V15.5128C102.711 14.9861 103.146 14.5512 103.673 14.5512H105.214ZM106.163 21.1767V24.0615C106.136 24.9702 105.399 25.7074 104.49 25.7343H93.229C93.1103 25.7343 93.0176 25.6415 93.0176 25.5238C93.0176 25.471 93.0305 25.4311 93.0704 25.3912L95.5203 22.2829H102.724V17.7392L106.163 21.1767ZM89.8305 17.9896H79.5312V21.4141H76.0928V16.2639C76.0928 15.3153 76.8569 14.5512 77.8055 14.5512H89.8305V17.9896ZM109.574 14.5512C110.087 14.5512 110.496 14.9731 110.496 15.4868C110.496 16.0006 110.074 16.4215 109.56 16.4215C109.047 16.4215 108.626 16.0006 108.626 15.4868C108.626 14.9731 109.047 14.5512 109.56 14.5512H109.574ZM109.533 14.6699C109.087 14.6699 108.717 15.0519 108.73 15.4998C108.73 15.9477 109.112 16.3168 109.56 16.3038H109.586C110.021 16.2898 110.377 15.9347 110.364 15.4868V15.4739C110.364 15.026 109.981 14.6569 109.533 14.6699ZM109.613 14.9991C109.837 14.9991 109.955 15.0918 109.955 15.2764V15.2893C109.955 15.434 109.851 15.5397 109.706 15.5397L109.692 15.5527L109.982 16.0006H109.824L109.547 15.5657H109.376V16.0006H109.231V14.9991H109.613ZM109.376 15.434H109.547C109.692 15.434 109.824 15.3941 109.824 15.2494C109.824 15.1048 109.692 15.0918 109.586 15.0918H109.376V15.434Z" fill="currentColor"/>
</svg>
