<svg width="150" height="48" viewBox="0 0 150 48" fill="none" xmlns="http://www.w3.org/2000/svg">
<path d="M52.9052 19.2505L50.7906 23.819L53.7034 23.8071L55.3957 27.5419H49.1586L46.6326 33.5H42.4142L50.7293 14.5L52.9052 19.2505ZM61.342 28.4963V28.5082L63.5664 33.5H59.4202L52.9052 19.2505L50.7303 14.5H55.1168L61.342 28.4963ZM72.9813 18.1259H65.5L65.5119 23.7943H70.7579L69.3554 27.5053H65.5356L65.5485 33.5H63.5664L61.342 28.4963L61.3539 14.5H74.3472L72.9813 18.1259ZM88.5374 28.7139L88.5305 28.7258L89.931 31.868L88.5374 28.7139L94.7616 14.5H99.1372L107.586 33.5H103.452L96.9257 19.2505L94.8101 23.819L97.7357 23.8071L99.4152 27.5419H93.1781L90.652 33.5H86.4346L86.4703 33.4159L79.9919 19.2505L77.8762 23.819L80.8019 23.8071L82.4823 27.5419H76.2453L73.7192 33.5H69.5008L77.8159 14.5H82.2034L88.5374 28.7139ZM102.944 14.5C103.622 14.5 104.177 15.0559 104.178 15.7324C104.178 16.4099 103.622 16.9657 102.944 16.9657C102.268 16.9657 101.712 16.4099 101.712 15.7324C101.712 15.0559 102.268 14.5 102.944 14.5ZM102.944 14.8135C102.437 14.8135 102.013 15.225 102.013 15.7452C102.013 16.2526 102.425 16.676 102.944 16.676C103.464 16.676 103.875 16.2526 103.875 15.7452C103.875 15.225 103.464 14.8145 102.944 14.8135ZM103.09 15.1162C103.307 15.1162 103.513 15.2853 103.513 15.5632C103.513 15.7808 103.392 15.8778 103.283 15.95L103.416 16.2764L103.356 16.3733H103.125L103.066 16.3248L102.944 15.9628H102.812V16.313L102.751 16.3733H102.546L102.485 16.313V15.1765H102.473L102.534 15.1162H103.09ZM102.787 15.6849H103.029V15.672L103.138 15.5632L103.029 15.4545H102.787V15.6849Z" fill="currentColor"/>
</svg>
