<svg width="32" height="32" viewBox="0 0 32 32" fill="none" xmlns="http://www.w3.org/2000/svg">
<path d="M16.7081 26.9559C16.3094 26.7733 15.9094 26.5906 15.5108 26.3746C13.5548 25.2693 11.7588 23.9039 10.1708 22.3159C8.11211 20.3786 6.42144 18.0839 5.18011 15.5453C4.51611 14.1813 4.06677 12.7213 3.84944 11.2199C3.55477 9.7026 3.72277 8.13194 4.33211 6.71193C4.70811 6.10127 5.16011 5.5426 5.68011 5.04793C5.88944 4.81327 6.14544 4.6226 6.43211 4.48793C6.71744 4.35327 7.02811 4.2786 7.34277 4.2666C8.00011 4.36527 8.59477 4.7106 9.00677 5.23193C9.90544 6.22927 10.8694 7.12794 11.8174 8.07594C12.1908 8.39594 12.4241 8.8506 12.4668 9.33994C12.4508 9.75194 12.2921 10.1466 12.0174 10.4546C11.7014 10.8533 11.3188 11.2199 10.9534 11.6026C10.7321 11.8146 10.5628 12.0759 10.4588 12.3639C10.3548 12.6533 10.3188 12.9613 10.3534 13.2653C10.5828 13.9799 10.9761 14.6293 11.5014 15.1626C12.1334 16.0279 12.7654 16.8253 13.4814 17.6746C14.7668 19.1586 16.2894 20.4173 17.9894 21.3999C18.2241 21.5773 18.5014 21.6893 18.7948 21.7253C19.0868 21.7599 19.3828 21.7173 19.6534 21.5999C20.2174 21.2839 20.7201 20.8666 21.1334 20.3693C21.4908 19.9333 22.0041 19.6533 22.5641 19.5866C23.0628 19.6119 23.5321 19.8266 23.8774 20.1866C24.3268 20.5679 24.7094 21.0173 25.1254 21.4333C25.5414 21.8493 25.8748 22.1493 26.2241 22.5319C26.6414 22.8999 27.0361 23.2946 27.4041 23.7119C27.6894 24.0813 27.8268 24.5453 27.7868 25.0106C27.6388 25.5666 27.3188 26.0613 26.8721 26.4239C26.2441 27.0773 25.4814 27.5853 24.6361 27.9133C23.7921 28.2399 22.8854 28.3799 21.9814 28.3199C20.1508 28.2173 18.3588 27.7546 16.7081 26.9559Z" stroke="currentColor" stroke-width="2" stroke-miterlimit="10" stroke-linecap="round"/>
<path d="M23.668 14.9309C23.668 13.1415 22.9573 11.4269 21.692 10.1615C20.428 8.89621 18.712 8.18555 16.9227 8.18555" stroke="currentColor" stroke-width="2" stroke-miterlimit="10" stroke-linecap="round"/>
<path d="M28.2907 14.4585C28.2907 11.5972 27.1547 8.85184 25.1307 6.82784C23.1067 4.80384 20.3613 3.6665 17.4987 3.6665" stroke="currentColor" stroke-width="2" stroke-miterlimit="10" stroke-linecap="round"/>
</svg>
