<svg width="29" height="29" viewBox="0 0 29 29" fill="none" stroke="currentColor" xmlns="http://www.w3.org/2000/svg">
<path d="M14.4999 6.42725H7.36472C6.79318 6.42725 6.22647 6.53962 5.69964 6.75954C5.1716 6.97825 4.69189 7.29966 4.2883 7.70325C3.88472 8.10804 3.56572 8.58895 3.34822 9.117C3.13072 9.64504 3.01955 10.2117 3.02076 10.7833V18.229C3.02076 19.3806 3.47872 20.4862 4.29314 21.3006C5.10755 22.115 6.21197 22.573 7.36472 22.573H14.4999C15.6515 22.573 16.7571 22.115 17.5715 21.3006C18.3859 20.4862 18.8439 19.3806 18.8439 18.229V10.7833C18.8451 10.2117 18.7339 9.64504 18.5164 9.117C18.2989 8.58895 17.9787 8.10804 17.5751 7.70325C17.1728 7.29966 16.6931 6.97825 16.165 6.75954C15.637 6.53962 15.0715 6.42725 14.4999 6.42725Z" stroke-width="1.8125" stroke-linecap="round" stroke-linejoin="round"/>
<path d="M25.9791 11.4042V17.609C25.9791 17.9123 25.8933 18.2084 25.7314 18.4645C25.567 18.7219 25.335 18.9285 25.0607 19.0602C24.7889 19.1968 24.482 19.2487 24.1799 19.2101C23.8814 19.175 23.5987 19.059 23.3606 18.8742L19.4637 15.747C19.2752 15.5923 19.123 15.3978 19.0179 15.1767C18.9115 14.9604 18.856 14.7223 18.856 14.4819C18.856 14.2402 18.9115 14.0022 19.0179 13.7871C19.129 13.5841 19.2813 13.4065 19.4637 13.2651L23.3606 10.1633C23.5987 9.97842 23.8814 9.86242 24.1799 9.82737C24.482 9.78871 24.7889 9.84067 25.0607 9.97721C25.335 10.1089 25.567 10.3155 25.7314 10.5717C25.8885 10.8218 25.9755 11.1094 25.9791 11.4042Z" stroke-width="1.8125" stroke-linecap="round" stroke-linejoin="round"/>
</svg>
