<svg width="32" height="32" viewBox="0 0 32 32" fill="none" xmlns="http://www.w3.org/2000/svg">
<path d="M16.9147 24.2959C17.4493 24.3999 17.9933 24.4545 18.5387 24.4612C19.9133 24.4625 21.2733 24.1719 22.528 23.6079L26.6547 24.2132C26.848 24.2145 27.0387 24.1745 27.2147 24.0972C27.392 24.0199 27.5493 23.9052 27.68 23.7625C27.8093 23.6199 27.908 23.4519 27.968 23.2692C28.028 23.0852 28.0493 22.8919 28.0307 22.6999L27.5347 18.5319C28.0653 17.3119 28.3373 15.9959 28.3333 14.6652C28.3293 13.3852 28.0733 12.1185 27.58 10.9372C27.0867 9.75588 26.364 8.68388 25.456 7.78121C24.548 6.87988 23.4707 6.16521 22.2853 5.67988C21.1013 5.19454 19.832 4.94788 18.552 4.95321C16.352 4.95321 14.2173 5.69854 12.496 7.06788C10.7747 8.43721 9.568 10.3492 9.07333 12.4919" stroke="currentColor" stroke-width="2" stroke-linecap="round" stroke-linejoin="round"/>
<path d="M18.5388 19.6588C18.5294 21.3428 17.9574 22.9734 16.9148 24.2948C16.2094 25.1601 15.3188 25.8561 14.3108 26.3321C13.3014 26.8081 12.1974 27.0521 11.0814 27.0468C10.0294 27.0414 8.98811 26.8174 8.02811 26.3868L4.94677 26.9361C4.79211 26.9534 4.63477 26.9348 4.48811 26.8814C4.34277 26.8268 4.21077 26.7401 4.10411 26.6268C3.99744 26.5134 3.91877 26.3761 3.87344 26.2281C3.82811 26.0788 3.81877 25.9214 3.84544 25.7668L4.27211 22.6174C3.86811 21.6841 3.66144 20.6761 3.66677 19.6588C3.66544 18.0388 4.19211 16.4614 5.16811 15.1681C6.14411 13.8748 7.51477 12.9348 9.07344 12.4921C9.72944 12.2961 10.4108 12.1988 11.0961 12.2028C13.0708 12.2068 14.9641 12.9934 16.3588 14.3921C17.7548 15.7894 18.5388 17.6841 18.5388 19.6588Z" stroke="currentColor" stroke-width="2" stroke-linecap="round" stroke-linejoin="round"/>
</svg>
