<svg viewBox="0 0 32 32" fill="none" stroke="currentColor" xmlns="http://www.w3.org/2000/svg">
<path d="M25.7987 7.00678L21.4814 11.1548L17.2201 5.34812C17.1054 5.12412 16.9294 4.93612 16.7147 4.80412C16.5001 4.67212 16.2521 4.60278 16.0001 4.60278C15.7481 4.60278 15.5001 4.67212 15.2854 4.80412C15.0707 4.93612 14.8947 5.12412 14.7801 5.34812L10.5187 11.1548L6.20141 7.00678C6.04675 6.75612 5.81608 6.56278 5.54408 6.45345C5.27075 6.34545 4.96941 6.32678 4.68541 6.40278C4.40141 6.47745 4.14941 6.64278 3.96541 6.87212C3.78141 7.10145 3.67741 7.38412 3.66675 7.67745L5.79075 22.6148C5.96141 23.9441 6.61341 25.1655 7.62408 26.0468C8.63341 26.9281 9.93208 27.4081 11.2721 27.3975H20.8654C22.2054 27.4081 23.5027 26.9281 24.5134 26.0468C25.5227 25.1655 26.1761 23.9441 26.3467 22.6148L28.3334 7.67745C28.3227 7.38412 28.2187 7.10145 28.0347 6.87212C27.8521 6.64278 27.5987 6.47745 27.3147 6.40278C27.0307 6.32678 26.7294 6.34545 26.4574 6.45345C26.1841 6.56278 25.9534 6.75612 25.7987 7.00678Z" stroke-width="2" stroke-linecap="round" stroke-linejoin="round"/>
<path d="M10.6667 21.9294H21.3334" stroke-width="2" stroke-linecap="round" stroke-linejoin="round"/>
</svg>
