<svg width="88" height="18" viewBox="0 0 88 18" fill="none" xmlns="http://www.w3.org/2000/svg">
<path d="M12.441 0.736662C13.454 0.727662 14.46 0.900662 15.412 1.24566C16.309 1.57266 17.122 2.09366 17.793 2.77266C18.493 3.49966 19.029 4.36766 19.365 5.31866C19.743 6.33766 19.932 7.53266 19.932 8.90566C19.942 10.0337 19.786 11.1567 19.469 12.2387C19.188 13.2047 18.712 14.1037 18.07 14.8777C17.433 15.6277 16.635 16.2247 15.735 16.6247C14.803 17.0487 13.705 17.2617 12.441 17.2617L7.288 17.2527L5.42 17.2517C4.741 17.2537 4.064 17.1567 3.413 16.9637C2.783 16.7797 2.196 16.4737 1.684 16.0637C1.163 15.6407 0.746 15.1037 0.462 14.4957C0.176 13.8587 0.019 13.1717 0 12.4767V10.7477H3.275V11.4857C3.273 11.8567 3.303 12.2277 3.367 12.5937C3.417 12.8997 3.527 13.1937 3.69 13.4577C3.848 13.6997 4.066 13.8947 4.324 14.0227C4.653 14.1737 5.013 14.2457 5.374 14.2307C5.85 14.2307 6.219 14.1467 6.48 13.9767C6.731 13.8207 6.929 13.5917 7.046 13.3197C7.163 13.0417 7.233 12.7447 7.253 12.4427C7.275 12.1397 7.286 11.8477 7.287 11.5657L7.286 0.736662H12.441ZM33.753 13.5807C33.753 14.0367 33.666 14.4127 33.493 14.7097C33.32 15.0067 33.07 15.2277 32.743 15.3727C32.416 15.5187 32.02 15.5917 31.553 15.5917L31.248 15.5837V14.3677C31.289 14.3707 31.326 14.3717 31.359 14.3717C31.392 14.3747 31.426 14.3767 31.462 14.3767C31.747 14.3767 31.952 14.3057 32.076 14.1657C32.199 14.0287 32.262 13.8267 32.262 13.5607V6.89066H33.753V13.5807ZM11.54 3.79166H10.916V14.2067H12.187C12.706 14.2077 13.222 14.1217 13.713 13.9517C14.212 13.7777 14.664 13.4887 15.03 13.1067C15.445 12.6657 15.76 12.1407 15.955 11.5677C16.204 10.8227 16.321 10.0397 16.302 9.25366C16.31 8.49466 16.229 7.73766 16.06 6.99766C15.919 6.37266 15.647 5.78466 15.262 5.27266C14.878 4.78466 14.371 4.40466 13.794 4.17366C13.075 3.89966 12.309 3.76966 11.54 3.79166ZM37.671 6.80766C38.061 6.80766 38.429 6.87066 38.775 6.99666C39.037 7.08966 39.275 7.22166 39.49 7.39166L39.698 7.57366C39.967 7.83466 40.179 8.16666 40.333 8.56966C40.487 8.97066 40.563 9.44966 40.564 10.0037V10.4617H36.155C36.16 10.8137 36.228 11.1167 36.357 11.3717C36.492 11.6327 36.68 11.8337 36.922 11.9737C37.164 12.1107 37.446 12.1797 37.771 12.1797C37.987 12.1797 38.184 12.1497 38.359 12.0897C38.535 12.0267 38.687 11.9337 38.816 11.8127C38.946 11.6927 39.043 11.5427 39.109 11.3637L40.502 11.5197C40.414 11.8887 40.246 12.2107 39.999 12.4847C39.755 12.7567 39.441 12.9677 39.06 13.1187C38.678 13.2667 38.241 13.3417 37.749 13.3417C37.115 13.3417 36.567 13.2097 36.106 12.9457C35.647 12.6797 35.294 12.3027 35.047 11.8167C34.8 11.3287 34.676 10.7417 34.676 10.0907C34.676 9.43966 34.8 8.86866 35.047 8.37666C35.297 7.88266 35.645 7.49766 36.093 7.22366C36.54 6.94566 37.067 6.80766 37.671 6.80766ZM44.51 6.80766C45.023 6.80766 45.478 6.90166 45.873 7.09166C46.271 7.27766 46.589 7.54266 46.825 7.88666C47.061 8.22666 47.196 8.62566 47.229 9.08166H45.804C45.746 8.77666 45.609 8.52266 45.392 8.31866C45.177 8.11266 44.89 8.01066 44.53 8.01066C44.225 8.01066 43.957 8.09266 43.727 8.25766C43.496 8.41966 43.316 8.65266 43.187 8.95766C43.06 9.26266 42.997 9.62266 42.997 10.0537C42.997 10.4847 43.06 10.8557 43.187 11.1657C43.313 11.4727 43.491 11.7107 43.719 11.8787C43.95 12.0437 44.22 12.1257 44.53 12.1257C44.75 12.1257 44.946 12.0847 45.119 12.0027C45.295 11.9177 45.442 11.7947 45.56 11.6357C45.677 11.4767 45.759 11.2817 45.803 11.0547H47.229C47.193 11.5017 47.061 11.8997 46.833 12.2457C46.605 12.5887 46.294 12.8587 45.901 13.0537C45.509 13.2457 45.047 13.3417 44.518 13.3417C43.886 13.3417 43.344 13.2027 42.891 12.9257C42.44 12.6477 42.092 12.2647 41.848 11.7757C41.606 11.2847 41.485 10.7217 41.485 10.0787C41.485 9.43666 41.609 8.86866 41.856 8.37666C42.104 7.88266 42.452 7.49766 42.902 7.22366C43.356 6.94566 43.892 6.80766 44.51 6.80766ZM84.883 6.80766C85.523 6.80766 86.075 6.94466 86.539 7.21966C87.006 7.49166 87.366 7.87366 87.619 8.36466C87.872 8.85366 87.998 9.43066 87.998 10.0787C87.998 10.7267 87.872 11.2967 87.619 11.7887C87.367 12.2777 87.006 12.6587 86.539 12.9337C86.075 13.2047 85.523 13.3417 84.883 13.3417C84.243 13.3417 83.69 13.2047 83.223 12.9337C82.759 12.6587 82.4 12.2777 82.148 11.7887C81.895 11.2967 81.769 10.7327 81.769 10.0787C81.769 9.42566 81.895 8.85366 82.148 8.36466C82.4 7.87366 82.759 7.49166 83.223 7.21966C83.69 6.94466 84.243 6.80766 84.883 6.80766ZM56.477 4.66466C57.103 4.66466 57.649 4.77166 58.116 4.98566C58.586 5.19966 58.951 5.49866 59.212 5.88066C59.472 6.26266 59.607 6.70466 59.615 7.20666H57.906C57.873 6.87466 57.731 6.61666 57.481 6.43266C57.232 6.24866 56.892 6.15566 56.464 6.15566C56.173 6.15566 55.927 6.19766 55.727 6.27966C55.526 6.35966 55.372 6.47066 55.265 6.61366C55.161 6.75666 55.108 6.91866 55.108 7.10066C55.103 7.25066 55.135 7.38366 55.203 7.49566C55.274 7.60866 55.372 7.70566 55.496 7.78766C55.619 7.86766 55.762 7.93766 55.924 7.99766C56.086 8.05566 56.259 8.10466 56.443 8.14566L57.201 8.32766C57.569 8.40966 57.907 8.51966 58.215 8.65666C58.522 8.79466 58.788 8.96366 59.014 9.16366C59.239 9.36466 59.413 9.60066 59.537 9.87266C59.663 10.1447 59.729 10.4557 59.731 10.8077C59.729 11.3237 59.597 11.7717 59.336 12.1507C59.078 12.5277 58.704 12.8197 58.215 13.0277C57.729 13.2337 57.137 13.3377 56.456 13.3377C55.775 13.3377 55.181 13.2327 54.676 13.0237C54.173 12.8157 53.78 12.5067 53.497 12.0977C53.217 11.6857 53.07 11.1757 53.057 10.5687H54.783C54.802 10.8517 54.884 11.0877 55.026 11.2767C55.172 11.4637 55.365 11.6057 55.606 11.7017C55.851 11.7957 56.133 11.8417 56.435 11.8417C56.737 11.8417 56.999 11.7977 57.222 11.7097C57.447 11.6217 57.622 11.4997 57.745 11.3437C57.869 11.1867 57.931 11.0067 57.931 10.8037C57.931 10.6137 57.874 10.4547 57.762 10.3257C57.652 10.1967 57.49 10.0867 57.275 9.99566C57.064 9.90466 56.804 9.82266 56.497 9.74866L55.578 9.51866C54.867 9.34566 54.305 9.07466 53.893 8.70666C53.481 8.33866 53.277 7.84266 53.279 7.21966C53.276 6.70866 53.413 6.26266 53.687 5.88066C53.965 5.49866 54.345 5.19966 54.828 4.98566C55.312 4.77166 55.85 4.66466 56.477 4.66466ZM77.823 13.2187H76.094V12.2047H76.019C75.937 12.3807 75.82 12.5547 75.669 12.7277C75.521 12.8987 75.327 13.0407 75.088 13.1527C74.852 13.2657 74.563 13.3217 74.223 13.3217C73.742 13.3217 73.307 13.1977 72.917 12.9507C72.53 12.7007 72.222 12.3347 71.994 11.8517C71.769 11.3657 71.656 10.7877 71.656 10.0627C71.656 9.33766 71.773 8.73466 72.007 8.25466C72.24 7.77166 72.55 7.40966 72.937 7.17066C73.327 6.92866 73.755 6.80866 74.219 6.80866C74.573 6.80866 74.868 6.86866 75.104 6.98866C75.343 7.10666 75.536 7.25566 75.682 7.43466C75.83 7.60966 75.943 7.78366 76.019 7.95366H76.072V4.78066H77.823V13.2187ZM62.763 6.89066H63.953V8.20866H62.763V11.2727C62.763 11.4347 62.788 11.5627 62.837 11.6527C62.886 11.7407 62.955 11.8017 63.043 11.8377C63.134 11.8727 63.238 11.8917 63.356 11.8917C63.439 11.8917 63.521 11.8857 63.604 11.8717C63.686 11.8547 63.749 11.8417 63.793 11.8337L64.069 13.1407C63.981 13.1677 63.857 13.1997 63.698 13.2347C63.539 13.2737 63.345 13.2967 63.117 13.3057C62.694 13.3217 62.323 13.2657 62.005 13.1367C61.689 13.0067 61.443 12.8057 61.268 12.5337C61.092 12.2617 61.005 11.9187 61.008 11.5047V8.20866H60.143V6.89066H61.008V5.37366H62.763V6.89066ZM49.644 6.89066H50.892V8.04366H49.644V11.3147C49.644 11.5147 49.674 11.6687 49.734 11.7757C49.797 11.8797 49.88 11.9517 49.981 11.9897C50.083 12.0287 50.196 12.0487 50.319 12.0487C50.413 12.0487 50.497 12.0407 50.574 12.0267C50.654 12.0127 50.715 12.0007 50.756 11.9897L51.007 13.1557C50.927 13.1837 50.813 13.2137 50.665 13.2467C50.52 13.2797 50.341 13.2987 50.13 13.3047C49.756 13.3147 49.419 13.2587 49.12 13.1357C48.821 13.0087 48.583 12.8147 48.407 12.5507C48.234 12.2867 48.15 11.9577 48.152 11.5617V8.04366H47.254V6.89066H48.152V5.37366H49.644V6.89066ZM66.504 10.6057C66.507 10.9797 66.607 11.2747 66.805 11.4917C67.002 11.7087 67.267 11.8177 67.6 11.8177C67.811 11.8177 68.009 11.7697 68.193 11.6737C68.377 11.5747 68.525 11.4287 68.638 11.2367C68.724 11.0927 68.778 10.9237 68.798 10.7287L68.808 10.5237V6.89066H70.563V13.2187H68.877V12.0687H68.812C68.669 12.4397 68.431 12.7387 68.099 12.9637C67.769 13.1887 67.367 13.3017 66.892 13.3017C66.469 13.3017 66.096 13.2047 65.774 13.0127C65.453 12.8207 65.202 12.5467 65.021 12.1927C64.842 11.8387 64.752 11.4137 64.749 10.9197V6.89066H66.504V10.6057ZM27.303 4.78066C28.14 4.78066 28.86 4.94966 29.462 5.28766C30.066 5.62266 30.529 6.10566 30.854 6.73366C31.178 7.36266 31.34 8.11366 31.34 8.99166C31.34 9.87066 31.176 10.6257 30.85 11.2577C30.526 11.8887 30.058 12.3737 29.445 12.7117C28.836 13.0497 28.102 13.2187 27.245 13.2187H24.386V4.78066H27.303ZM80.674 13.2187H78.919V6.89066H80.674V13.2187ZM84.892 8.14566C84.598 8.14566 84.351 8.23066 84.15 8.39766C83.953 8.56566 83.803 8.79366 83.701 9.08166C83.602 9.36966 83.553 9.69866 83.553 10.0657C83.553 10.4337 83.602 10.7627 83.701 11.0517C83.803 11.3397 83.953 11.5677 84.15 11.7347C84.351 11.8997 84.601 11.9817 84.892 11.9817C85.183 11.9817 85.426 11.8997 85.621 11.7347C85.816 11.5677 85.963 11.3397 86.061 11.0517C86.163 10.7627 86.214 10.4337 86.214 10.0657C86.214 9.69866 86.163 9.36966 86.061 9.08166C85.963 8.79366 85.816 8.56566 85.621 8.39766C85.426 8.23066 85.186 8.14566 84.892 8.14566ZM74.779 8.20466C74.491 8.20466 74.248 8.28266 74.05 8.43866C73.852 8.59566 73.702 8.81366 73.601 9.09066C73.499 9.36766 73.448 9.68666 73.448 10.0547C73.448 10.4227 73.499 10.7487 73.601 11.0307C73.705 11.3107 73.855 11.5307 74.05 11.6897C74.247 11.8467 74.496 11.9247 74.779 11.9247C75.062 11.9247 75.301 11.8477 75.496 11.6937C75.694 11.5377 75.845 11.3187 75.949 11.0387C76.056 10.7587 76.109 10.4307 76.109 10.0547C76.109 9.67766 76.058 9.35166 75.953 9.07366C75.849 8.79666 75.697 8.58266 75.5 8.43166C75.302 8.28066 75.067 8.20466 74.779 8.20466ZM25.914 11.8967H27.171C27.759 11.8967 28.249 11.7897 28.642 11.5747C29.034 11.3577 29.33 11.0357 29.527 10.6067C29.725 10.1757 29.824 9.63666 29.824 8.99166C29.824 8.34666 29.725 7.81066 29.527 7.38566C29.33 6.95766 29.037 6.63666 28.65 6.42566C28.266 6.21166 27.788 6.10366 27.217 6.10366H25.914V11.8967ZM37.691 7.96966C37.386 7.96966 37.118 8.04366 36.888 8.19166C36.657 8.33766 36.478 8.52966 36.349 8.76866C36.236 8.97866 36.173 9.20866 36.158 9.45666H39.134C39.131 9.17166 39.069 8.91666 38.948 8.69366C38.827 8.46866 38.658 8.29166 38.441 8.16266C38.227 8.03366 37.977 7.96966 37.691 7.96966ZM79.8 4.29866C80.061 4.29866 80.284 4.38666 80.468 4.56266C80.654 4.73466 80.748 4.93966 80.748 5.18466C80.748 5.42866 80.654 5.63966 80.468 5.81466C80.284 5.98766 80.061 6.07366 79.8 6.07366C79.539 6.07366 79.316 5.98766 79.129 5.81466C78.945 5.63966 78.853 5.42566 78.853 5.18466C78.853 4.94266 78.945 4.73566 79.129 4.56266C79.316 4.38666 79.539 4.29866 79.8 4.29866ZM33.004 4.37266C33.24 4.37266 33.442 4.45266 33.609 4.61166C33.78 4.76866 33.865 4.96166 33.865 5.18466C33.865 5.40666 33.779 5.59766 33.609 5.75666C33.442 5.91266 33.243 5.99166 33.004 5.99166C32.765 5.99166 32.56 5.91266 32.39 5.75666C32.223 5.59766 32.139 5.40866 32.139 5.18466C32.139 4.95966 32.222 4.76866 32.39 4.61166C32.56 4.45266 32.768 4.37266 33.004 4.37266Z" fill="white"/>
</svg>
