<svg viewBox="0 0 32 32" fill="none" stroke="currentColor" xmlns="http://www.w3.org/2000/svg">
<path d="M26.8921 17.7921C26.8921 11.9681 21.6215 12.1521 21.6215 3.66675C13.0175 5.78808 12.3055 9.82008 12.3055 17.3174C10.3561 17.5147 8.57745 14.2867 7.45745 12.5214C2.29212 19.2814 5.80945 28.3334 16.3508 28.3334C19.1468 28.3334 21.8281 27.2227 23.8055 25.2454C25.7815 23.2694 26.8921 20.5881 26.8921 17.7921Z" stroke-width="2" stroke-linecap="round" stroke-linejoin="round"/>
<path d="M22.5826 17.3174C22.5639 18.2934 22.3346 19.2534 21.9119 20.132C21.4892 21.012 20.8826 21.7907 20.1332 22.4147C19.3839 23.04 18.5079 23.496 17.5679 23.7534C16.6266 24.0107 15.6399 24.0627 14.6772 23.9054" stroke-width="2" stroke-linecap="round" stroke-linejoin="round"/>
</svg>
