<svg xmlns="http://www.w3.org/2000/svg" viewBox="0 0 32 32" fill="none"><rect width="32" height="32" fill="currentColor" rx="16"/><path stroke="#000" stroke-linecap="round" stroke-linejoin="round" stroke-width="8" d="M18.381 22.666c.003-.42.005-1.88.005-2.458 0-.835-.273-1.382-.58-1.659 1.903-.221 3.9-.978 3.9-4.42 0-.978-.33-1.778-.878-2.404.088-.226.38-1.138-.085-2.37 0 0-.716-.242-2.346.918a7.824 7.824 0 0 0-2.138-.302 7.83 7.83 0 0 0-2.138.302c-1.63-1.16-2.346-.919-2.346-.919-.466 1.233-.173 2.145-.085 2.371-.548.626-.878 1.426-.878 2.404 0 3.442 1.997 4.199 3.899 4.42-.307.277-.58.824-.58 1.659 0 .578.003 2.038.005 2.459m-3.842-3.604c.858.063 1.352.877 1.352.877.762 1.37 2 .973 2.485.745" style="stroke:#fff;stroke-width:1;stroke-dasharray:none;stroke-opacity:1"/></svg>
