<svg width="22" height="22" viewBox="0 0 22 22" fill="none" stroke="currentColor" xmlns="http://www.w3.org/2000/svg">
<path d="M4.58333 11H8.25V19.25H4.58333C4.0975 19.25 3.63092 19.0566 3.28717 18.7128C2.94342 18.3691 2.75 17.9025 2.75 17.4167V12.8333C2.75 12.3475 2.94342 11.8809 3.28717 11.5372C3.63092 11.1934 4.0975 11 4.58333 11Z" stroke-width="1.375" stroke-linecap="round" stroke-linejoin="round"/>
<path d="M10.0833 6.4165H13.75V19.2498H8.25V8.24984C8.25 7.764 8.44342 7.29742 8.78717 6.95367C9.13092 6.60992 9.5975 6.4165 10.0833 6.4165Z" stroke-width="1.375" stroke-linecap="round" stroke-linejoin="round"/>
<path d="M15.5833 2.75H17.4167C17.9025 2.75 18.3691 2.94342 18.7128 3.28717C19.0566 3.63092 19.25 4.0975 19.25 4.58333V17.4167C19.25 17.9025 19.0566 18.3691 18.7128 18.7128C18.3691 19.0566 17.9025 19.25 17.4167 19.25H13.75V4.58333C13.75 4.0975 13.9434 3.63092 14.2872 3.28717C14.6309 2.94342 15.0975 2.75 15.5833 2.75Z" stroke-width="1.375" stroke-linecap="round" stroke-linejoin="round"/>
</svg>
