<svg width="32" height="32" viewBox="0 0 32 32" fill="none" xmlns="http://www.w3.org/2000/svg">
<rect width="32" height="32" rx="16" fill="black"/>
<path d="M19.3334 9.3335H12.6667C10.8258 9.3335 9.33337 10.8259 9.33337 12.6668V19.3335C9.33337 21.1744 10.8258 22.6668 12.6667 22.6668H19.3334C21.1743 22.6668 22.6667 21.1744 22.6667 19.3335V12.6668C22.6667 10.8259 21.1743 9.3335 19.3334 9.3335Z" stroke="white" stroke-linecap="round" stroke-linejoin="round"/>
<path d="M18.6667 15.5802C18.7489 16.135 18.6542 16.7017 18.3958 17.1995C18.1375 17.6974 17.7288 18.1011 17.2278 18.3533C16.7267 18.6055 16.159 18.6933 15.6052 18.6042C15.0514 18.515 14.5398 18.2536 14.1432 17.857C13.7466 17.4604 13.4852 16.9488 13.3961 16.395C13.3069 15.8412 13.3947 15.2735 13.6469 14.7725C13.8991 14.2714 14.3028 13.8627 14.8007 13.6044C15.2985 13.346 15.8652 13.2513 16.42 13.3335C16.986 13.4175 17.5099 13.6812 17.9145 14.0857C18.319 14.4903 18.5828 15.0143 18.6667 15.5802Z" stroke="white" stroke-linecap="round" stroke-linejoin="round"/>
<path d="M19.6666 12.3335H19.6733" stroke="white" stroke-linecap="round" stroke-linejoin="round"/>
</svg>
