<svg width="150" height="48" viewBox="0 0 150 48" fill="none" xmlns="http://www.w3.org/2000/svg">
<path d="M41.5374 14.5064C43.1067 14.5044 44.4011 14.5144 44.4132 14.5275C44.4243 14.5446 44.1676 15.1405 43.8415 15.8542C43.5143 16.5709 42.8963 17.9217 42.4655 18.8568C42.0357 19.7919 41.3894 21.1991 41.0281 21.9832C40.6677 22.7684 40.1987 23.788 39.9873 24.25C39.7749 24.711 39.2595 25.8334 38.8408 26.7423C38.4231 27.6523 37.649 29.3343 37.1216 30.4807C36.5941 31.6272 36.0677 32.7747 35.7385 33.4944H32.8728C30.8687 33.4954 30.0051 33.4803 30 33.4461C29.997 33.4179 30.2748 32.7918 30.6181 32.053C30.9623 31.3132 31.4123 30.3408 31.6186 29.8919C31.8239 29.443 32.1752 28.679 32.3977 28.1928C32.6211 27.7066 33.5633 25.6572 34.4924 23.638C35.4214 21.6188 36.3777 19.5393 36.6183 19.0148C36.8588 18.4914 37.4215 17.2634 37.8694 16.286L38.6828 14.5084L41.5374 14.5064ZM109.564 14.5285L111.691 19.1749C112.86 21.7296 113.816 23.8303 113.816 23.8424C113.81 23.8555 113.336 23.9128 112.761 23.9712C112.182 24.0296 111.33 24.1162 110.869 24.1635C110.684 24.1826 110.495 24.2007 110.326 24.2178C110.501 24.2007 110.698 24.1816 110.892 24.1615C111.365 24.1131 112.201 24.0286 112.75 23.9752C113.297 23.9219 113.786 23.8615 113.837 23.8404C113.886 23.8192 114.09 23.79 114.29 23.7739C114.489 23.7588 115.039 23.7075 115.513 23.6582C115.986 23.6109 116.791 23.5293 117.302 23.478C117.813 23.4277 118.536 23.3542 118.91 23.3159C119.284 23.2767 119.62 23.2394 119.658 23.2324C119.695 23.2243 119.782 23.2153 119.85 23.2123C119.925 23.2092 119.984 23.2354 119.997 23.2757C120.013 23.322 119.954 23.3723 119.805 23.4377C119.687 23.4901 119.274 23.6622 118.887 23.8192C118.501 23.9762 117.879 24.2299 117.506 24.3839C117.132 24.5369 116.409 24.8328 115.897 25.0412C115.387 25.2506 114.663 25.5455 114.29 25.6985C113.916 25.8515 113.181 26.1515 112.659 26.3659C112.136 26.5793 111.544 26.8198 111.344 26.9014C111.145 26.9839 110.574 27.2184 110.076 27.4228L109.889 27.4993C109.418 27.6915 108.854 27.923 108.559 28.0428C108.223 28.1807 107.499 28.4767 106.951 28.7001C106.403 28.9246 105.678 29.2205 105.342 29.3584C105.006 29.4963 104.435 29.7298 104.074 29.8778C103.714 30.0248 103 30.3167 102.489 30.525C101.977 30.7334 101.305 31.0082 100.994 31.137C100.682 31.2649 100.198 31.4652 99.9178 31.5829C99.5705 31.7279 99.3914 31.7812 99.3582 31.75C99.3239 31.7178 99.3642 31.6111 99.4971 31.3877C99.5997 31.2125 100.056 30.4858 100.509 29.7721C100.963 29.0585 101.843 27.6664 102.466 26.6799C103.088 25.6945 103.627 24.8791 103.666 24.8651C103.705 24.852 104.05 24.8107 104.436 24.7714C104.823 24.7322 105.516 24.6617 105.977 24.6144C106.437 24.5661 106.998 24.5117 107.223 24.4936C107.446 24.4755 107.66 24.4654 107.698 24.4705C107.703 24.4715 107.714 24.4695 107.73 24.4695C107.682 24.4453 107.624 24.3557 107.554 24.1937C107.486 24.0376 107.164 23.329 106.838 22.6184C106.512 21.9077 106.058 20.9142 105.828 20.4089C105.599 19.9057 105.401 19.493 105.389 19.492C105.375 19.493 105.139 19.8553 104.861 20.2972C104.583 20.7391 103.226 22.8851 101.844 25.0654C100.462 27.2466 98.6979 30.0308 96.5166 33.4733L93.3197 33.4844C91.216 33.4914 90.1279 33.4803 90.1218 33.4501C90.1218 33.426 90.4047 32.9609 90.7499 32.4194C91.0962 31.8769 93.0449 28.8028 95.0812 25.5868C97.1185 22.3718 99.5313 18.5629 100.441 17.1235L102.099 14.5054L109.564 14.5285ZM60.9371 14.5074C65.7516 14.5064 69.6984 14.5215 69.7074 14.5406C69.7125 14.5638 68.8277 15.5884 65.7727 19.042L58.4338 19.041C51.9937 19.04 51.0596 19.048 50.8009 19.1095C50.6389 19.1467 50.4245 19.2262 50.3248 19.2836C50.2262 19.341 50.0571 19.4879 49.9494 19.6097C49.8427 19.7315 49.7128 19.9429 49.6615 20.0808C49.5991 20.2479 49.5749 20.4039 49.587 20.5569C49.5971 20.6868 49.6434 20.8408 49.6967 20.9193C49.7491 20.9938 49.8698 21.0954 49.9675 21.1458C50.1406 21.2343 50.2574 21.2374 62.6473 21.2837L63.0771 21.4085C63.3147 21.4779 63.6911 21.6229 63.9156 21.7316C64.1401 21.8403 64.4863 22.0497 64.6856 22.1976C64.8849 22.3466 65.1909 22.6184 65.3661 22.8036C65.5412 22.9878 65.7919 23.3129 65.9227 23.5253C66.0536 23.7367 66.2187 24.0628 66.2901 24.25C66.3626 24.4373 66.4532 24.7483 66.4934 24.9416C66.5367 25.1519 66.5649 25.5193 66.5649 25.8585C66.5649 26.1917 66.5367 26.5611 66.4965 26.7544C66.4592 26.9346 66.3747 27.2456 66.3092 27.4459C66.2438 27.6452 66.0928 28.0116 65.972 28.2612C65.8523 28.5109 65.664 28.8672 65.5533 29.0544C65.4436 29.2406 65.202 29.598 65.0158 29.8466C64.8306 30.0962 64.5347 30.4536 64.3605 30.6398C64.1854 30.827 63.8512 31.136 63.6166 31.3273C63.3821 31.5185 63.0067 31.7893 62.7822 31.9302C62.5587 32.0701 62.1611 32.2896 61.8994 32.4174C61.6387 32.5442 61.1234 32.7465 60.756 32.8673C60.3886 32.9881 59.838 33.1381 59.533 33.1995C59.228 33.2619 58.7227 33.3465 58.4106 33.3897C57.8963 33.4602 57.0296 33.4683 48.9096 33.4813C42.9949 33.4904 39.9953 33.4803 39.9742 33.4501C39.9742 33.426 40.7543 32.5221 41.7065 31.444C42.6597 30.365 43.5415 29.3665 43.8928 28.9628L58.9773 28.9407L59.3397 28.7665C59.6054 28.6387 59.7826 28.5109 60.002 28.2904C60.1822 28.1082 60.3594 27.8717 60.45 27.6945C60.5315 27.5325 60.6261 27.2979 60.6593 27.1731C60.6936 27.0493 60.7207 26.8752 60.7217 26.7876C60.7227 26.7 60.6996 26.5581 60.6704 26.4715C60.6422 26.384 60.5657 26.2421 60.5003 26.1565C60.4349 26.0709 60.2899 25.9582 60.1782 25.9069C59.9769 25.8143 59.9044 25.8132 53.6999 25.7881C48.05 25.7639 47.3876 25.7539 47.0404 25.6844C46.829 25.6421 46.5028 25.5656 46.3156 25.5143C46.1294 25.464 45.8133 25.3512 45.614 25.2637C45.4147 25.1771 45.1188 25.017 44.9567 24.9103C44.7957 24.8016 44.5128 24.553 44.3296 24.3567C44.0991 24.1101 43.9421 23.8897 43.8203 23.638C43.7237 23.4387 43.613 23.1539 43.5737 23.0039C43.5355 22.8539 43.4922 22.5278 43.4781 22.2782C43.461 21.9631 43.4751 21.6883 43.5274 21.3722C43.5687 21.1236 43.6744 20.7049 43.7619 20.4432C43.8505 20.1815 44.0347 19.7426 44.1726 19.4688C44.3105 19.195 44.536 18.7974 44.6739 18.585C44.8118 18.3736 45.0181 18.0777 45.1329 17.9277C45.2476 17.7778 45.4842 17.505 45.6593 17.3218C45.8335 17.1376 46.1294 16.8598 46.3156 16.7047C46.5028 16.5487 46.8501 16.2941 47.0867 16.139C47.3232 15.983 47.7409 15.7475 48.0147 15.6156C48.2885 15.4828 48.7274 15.3006 48.9891 15.21C49.2508 15.1194 49.6685 14.9936 49.9172 14.9312C50.1668 14.8677 50.5946 14.7761 50.8684 14.7288C51.1422 14.6815 51.5196 14.6302 51.7068 14.6141C51.8941 14.598 52.0773 14.5678 52.1145 14.5476C52.1558 14.5265 56.1247 14.5084 60.9371 14.5074ZM86.1831 14.5064C91.0157 14.5064 94.9695 14.5215 94.9695 14.5406C94.9645 14.5648 94.0807 15.5844 91.0589 19.0158L83.6022 19.038C76.7273 19.0591 76.1284 19.0662 75.92 19.1376C75.7952 19.1799 75.5939 19.2826 75.4701 19.3651C75.3473 19.4467 75.1802 19.6158 75.0987 19.7406C75.0171 19.8654 74.9185 20.0899 74.8802 20.2388C74.8239 20.4633 74.8209 20.5458 74.8672 20.7109C74.9014 20.8327 74.9809 20.9605 75.0705 21.0391C75.151 21.1105 75.2939 21.188 75.3876 21.2132C75.4963 21.2424 77.7238 21.2585 81.5599 21.2585C86.6974 21.2575 87.6144 21.2676 87.9245 21.3259C88.1238 21.3622 88.4398 21.4457 88.626 21.5091C88.8133 21.5736 89.1464 21.7215 89.3679 21.8393C89.5893 21.956 89.9346 22.1845 90.1349 22.3466C90.3372 22.5087 90.6291 22.7935 90.7852 22.9807C90.9412 23.168 91.1576 23.474 91.2633 23.6612C91.37 23.8474 91.522 24.1947 91.6025 24.4312C91.682 24.6688 91.7726 25.0452 91.8018 25.2697C91.833 25.5052 91.8431 25.8696 91.827 26.1313C91.8129 26.38 91.7484 26.7876 91.685 27.0372C91.6216 27.2869 91.4817 27.6945 91.374 27.9442C91.2673 28.1928 91.0519 28.6216 90.8949 28.8954C90.7368 29.1702 90.4409 29.6181 90.2346 29.8929C90.0292 30.1667 89.6286 30.6156 89.3447 30.8894C89.0599 31.1642 88.6351 31.5246 88.3996 31.6927C88.163 31.8598 87.7151 32.1285 87.4031 32.2886C87.092 32.4486 86.633 32.6549 86.3844 32.7476C86.1348 32.8402 85.7482 32.964 85.5238 33.0223C85.2993 33.0817 84.9118 33.1723 84.6621 33.2237C84.4135 33.275 83.9545 33.3505 83.6435 33.3918C83.1392 33.4582 82.1135 33.4683 74.1756 33.4813C69.2807 33.4894 65.2614 33.4803 65.2443 33.4612C65.2302 33.4411 66.0999 32.4244 69.1337 28.986L84.2092 28.9407L84.482 28.83C84.6309 28.7686 84.8755 28.6246 85.0255 28.5099C85.1745 28.3941 85.399 28.1586 85.5248 27.9854C85.6597 27.8002 85.7956 27.5415 85.857 27.3543C85.9375 27.1127 85.9586 26.9618 85.9465 26.7172C85.9355 26.4665 85.9063 26.3608 85.8177 26.231C85.7563 26.1394 85.6033 26.0085 85.252 25.8132L78.978 25.7881C72.8178 25.7619 72.695 25.7589 72.2058 25.6643C71.931 25.6119 71.5344 25.5093 71.322 25.4378C71.1106 25.3663 70.7744 25.2224 70.5751 25.1197C70.3758 25.017 70.0799 24.8238 69.9178 24.6909C69.7558 24.558 69.5232 24.3175 69.4014 24.1574C69.2797 23.9964 69.1216 23.7427 69.0512 23.5927C68.9807 23.4438 68.881 23.1579 68.8317 22.9586C68.7633 22.6939 68.7391 22.4513 68.7391 22.0638C68.7401 21.7648 68.7703 21.3873 68.8086 21.2021C68.8468 21.0219 68.9324 20.6998 68.9998 20.4885C69.0673 20.2761 69.2807 19.7869 69.4749 19.4014C69.6682 19.0148 69.9591 18.5146 70.1201 18.2901C70.2822 18.0666 70.5389 17.7405 70.6899 17.5654C70.8419 17.3912 71.1428 17.0882 71.3592 16.893C71.5757 16.6987 71.9662 16.3957 72.2279 16.2196C72.4896 16.0434 72.9023 15.8008 73.1449 15.679C73.3885 15.5572 73.7448 15.3942 73.9381 15.3177C74.1313 15.2402 74.5239 15.1093 74.8098 15.0268C75.0967 14.9442 75.616 14.8234 75.9653 14.758C76.3136 14.6936 76.7625 14.6272 76.9628 14.6121C77.1621 14.596 77.3413 14.5658 77.3615 14.5446C77.3806 14.5235 81.3505 14.5064 86.1831 14.5064ZM115.09 26.6467C115.108 26.6628 115.264 26.9809 115.435 27.3543C115.607 27.7288 115.902 28.371 116.09 28.7826C116.279 29.1943 116.832 30.4022 117.321 31.4672C117.809 32.5332 118.208 33.426 118.208 33.4501C118.201 33.4803 117.102 33.4914 111.804 33.4733L111.288 32.3399C111.003 31.7168 110.527 30.677 110.229 30.0288C109.815 29.1289 109.701 28.842 109.746 28.8118C109.778 28.7907 110.986 28.2894 112.431 27.6966C113.875 27.1047 115.071 26.6316 115.09 26.6467Z" fill="currentColor"/>
</svg>
