<svg viewBox="0 0 32 32" fill="none" stroke="currentColor" xmlns="http://www.w3.org/2000/svg">
<path d="M12.2877 3.66687H21.9504C22.0664 3.66687 22.1811 3.69487 22.2837 3.75087C22.3864 3.80554 22.4744 3.88554 22.5384 3.98287C22.6024 4.0802 22.6411 4.1922 22.6504 4.3082C22.6597 4.4242 22.6411 4.5402 22.5944 4.64687L18.8131 13.4695H25.1851C25.2384 13.4695 25.2904 13.4855 25.3357 13.5149C25.3797 13.5442 25.4157 13.5855 25.4371 13.6335C25.4597 13.6815 25.4677 13.7362 25.4597 13.7882C25.4517 13.8415 25.4304 13.8909 25.3957 13.9322L12.3997 28.2149C12.3651 28.2682 12.3117 28.3069 12.2504 28.3242C12.1891 28.3402 12.1224 28.3349 12.0651 28.3082C12.0077 28.2815 11.9611 28.2335 11.9357 28.1762C11.9091 28.1175 11.9051 28.0522 11.9237 27.9909L13.2117 17.6709H7.24641C7.13041 17.6722 7.01575 17.6455 6.91308 17.5922C6.81041 17.5389 6.72241 17.4602 6.65708 17.3642C6.59175 17.2682 6.55175 17.1589 6.53975 17.0429C6.52775 16.9282 6.54375 16.8109 6.58775 16.7042L11.6291 4.10154C11.6824 3.97087 11.7744 3.8602 11.8917 3.78287C12.0091 3.70554 12.1477 3.6642 12.2877 3.66687Z"  stroke-width="2" stroke-linecap="round" stroke-linejoin="round"/>
</svg>
