<svg viewBox="0 0 85 27" fill="currentColor" xmlns="http://www.w3.org/2000/svg">
<path d="M27.0963 7.75502C31.4679 7.75506 33.3313 9.49392 33.3313 13.7663V20.5478H29.6054V19.1319C28.8105 20.2 27.5433 20.9198 26.0777 20.9198C22.7991 20.9198 20.8615 19.3801 20.8613 16.7474C20.8613 14.1144 22.9727 12.7478 26.0777 12.7478C27.1955 12.7478 28.6614 12.9218 29.6054 13.8409C29.5805 11.7295 29.0832 10.8598 27.1209 10.8598C25.4322 10.8598 25.0843 11.456 24.96 12.0521H21.5325C21.7809 9.56821 23.0724 7.75502 27.0963 7.75502ZM40.392 7.75502C44.0434 7.75502 46.1055 9.96599 46.3042 12.7232H42.9757C42.777 11.5806 41.9072 10.8598 40.4666 10.8598C38.5789 10.8598 37.7593 12.2757 37.7593 14.2628C37.7593 16.4239 38.9517 17.8151 40.5912 17.8151C42.0316 17.8149 42.6529 17.1939 43.0503 16.0017H46.3287C45.8816 19.7523 43.2488 20.9197 40.442 20.9198C36.3685 20.9198 33.9589 18.635 33.9588 14.2883C33.9588 10.3636 36.3929 7.75502 40.392 7.75502ZM65.8977 7.75502C69.6235 7.75502 72.1569 10.2637 72.2563 14.0392V15.3314H63.5132C63.7368 16.8713 64.5814 17.815 66.2951 17.8151C67.4625 17.8151 68.3815 17.4673 68.6796 16.5482H72.1081C71.7603 19.5538 69.4001 20.9198 66.3696 20.9198C62.0478 20.9198 59.6137 18.3121 59.6136 14.2883C59.6136 10.3637 62.1718 7.75507 65.8977 7.75502ZM19.1234 4.24557C20.3269 5.05491 21.1277 6.39258 21.1277 8.49984C21.1277 11.0335 20.1589 13.0207 18.0475 14.0392L21.3269 20.5478H17.129L14.2225 14.7849H12.2354V20.5478H8.50952V11.0953L12.2354 11.1335H14.5954C16.3092 11.1335 17.3273 10.1892 17.3273 8.8727C17.3272 8.06027 16.9395 7.46572 16.2396 7.12934L19.1234 4.24557ZM50.4475 10.0158C51.1182 8.72419 52.2859 7.75504 54.1489 7.75502C56.5583 7.75502 58.9923 9.07149 58.9925 12.8469V20.5478H55.2665V13.8654C55.2665 11.4313 53.9995 10.8107 52.832 10.8107C51.2425 10.8109 50.4475 12.0027 50.4475 13.5426V20.5478H46.7216V3.15971H50.4475V10.0158ZM76.4906 20.5478H72.7647V3.15971H76.4906V20.5478ZM27.1209 15.1823C25.8044 15.1824 24.6617 15.729 24.6617 16.7474C24.6621 17.8152 25.9042 18.287 26.848 18.287C27.9906 18.287 29.6054 17.6909 29.6054 16.2999C29.6054 15.2815 27.6176 15.1823 27.1209 15.1823ZM66.0969 10.8598C64.5816 10.8598 63.8109 11.7293 63.5377 13.0706H68.7542C68.5306 11.6549 67.6366 10.8599 66.0969 10.8598Z"/>
</svg>
