<svg width="85" height="27" viewBox="0 0 85 27" fill="none" xmlns="http://www.w3.org/2000/svg">
<path d="M27.0962 7.75502C31.4679 7.75506 33.3312 9.49392 33.3312 13.7663V20.5478H29.6053V19.1319C28.8105 20.2 27.5432 20.9198 26.0776 20.9198C22.799 20.9198 20.8614 19.3801 20.8612 16.7474C20.8612 14.1144 22.9727 12.7478 26.0776 12.7478C27.1954 12.7478 28.6614 12.9218 29.6053 13.8409C29.5804 11.7295 29.0831 10.8598 27.1208 10.8598C25.4321 10.8598 25.0843 11.456 24.9599 12.0521H21.5324C21.7808 9.56821 23.0723 7.75502 27.0962 7.75502ZM40.3919 7.75502C44.0434 7.75502 46.1054 9.96599 46.3041 12.7232H42.9756C42.7769 11.5806 41.9072 10.8598 40.4665 10.8598C38.5788 10.8598 37.7592 12.2757 37.7592 14.2628C37.7592 16.4239 38.9517 17.8151 40.5911 17.8151C42.0315 17.8149 42.6528 17.1939 43.0502 16.0017H46.3286C45.8815 19.7523 43.2487 20.9197 40.4419 20.9198C36.3684 20.9198 33.9589 18.635 33.9587 14.2883C33.9587 10.3636 36.3928 7.75502 40.3919 7.75502ZM65.8976 7.75502C69.6234 7.75502 72.1568 10.2637 72.2563 14.0392V15.3314H63.5131C63.7367 16.8713 64.5813 17.815 66.2951 17.8151C67.4625 17.8151 68.3814 17.4673 68.6795 16.5482H72.108C71.7603 19.5538 69.4 20.9198 66.3696 20.9198C62.0477 20.9198 59.6136 18.3121 59.6135 14.2883C59.6135 10.3637 62.1717 7.75507 65.8976 7.75502ZM19.1233 4.24557C20.3268 5.05491 21.1276 6.39258 21.1277 8.49984C21.1277 11.0335 20.1588 13.0207 18.0475 14.0392L21.3269 20.5478H17.1289L14.2224 14.7849H12.2353V20.5478H8.50945V11.0953L12.2353 11.1335H14.5953C16.3092 11.1335 17.3272 10.1892 17.3272 8.8727C17.3271 8.06027 16.9394 7.46572 16.2395 7.12934L19.1233 4.24557ZM50.4474 10.0158C51.1181 8.72419 52.2858 7.75504 54.1488 7.75502C56.5582 7.75502 58.9922 9.07149 58.9924 12.8469V20.5478H55.2665V13.8654C55.2664 11.4313 53.9994 10.8107 52.8319 10.8107C51.2425 10.8109 50.4474 12.0027 50.4474 13.5426V20.5478H46.7215V3.15971H50.4474V10.0158ZM76.4905 20.5478H72.7646V3.15971H76.4905V20.5478ZM27.1208 15.1823C25.8043 15.1824 24.6617 15.729 24.6617 16.7474C24.662 17.8152 25.9041 18.287 26.848 18.287C27.9905 18.287 29.6053 17.6909 29.6053 16.2999C29.6053 15.2815 27.6175 15.1823 27.1208 15.1823ZM66.0968 10.8598C64.5816 10.8598 63.8109 11.7293 63.5376 13.0706H68.7541C68.5305 11.6549 67.6365 10.8599 66.0968 10.8598Z" fill="currentColor"/>
</svg>
