<svg width="150" height="48" viewBox="0 0 150 48" fill="none" xmlns="http://www.w3.org/2000/svg">
<path d="M91.7867 26.1704H84.2787C83.8113 26.1704 83.4292 26.5505 83.4292 27.0159C83.4292 27.4251 83.7411 27.7771 84.1373 27.8473L84.2366 27.8754H88.2884C89.506 27.8754 90.5972 28.3969 91.3624 29.2284C92.0424 29.9615 92.4667 30.9484 92.4667 32.0336C92.4667 32.4277 92.4105 32.8229 92.2972 33.189L92.24 33.3865L92.1979 33.4989C92.1698 33.5972 92.1126 33.7105 92.0705 33.8088L92.0284 33.9071L91.9291 34.0906L91.9 34.1327C91.8298 34.2461 91.7586 34.3584 91.6733 34.4717L91.6172 34.5419C91.546 34.6543 91.4467 34.7535 91.3484 34.8799L91.3203 34.908C91.1638 35.0775 90.9793 35.233 90.7958 35.3734L90.7807 35.3874C90.0877 35.9089 89.2232 36.2188 88.2884 36.2188H80.7804V32.9633L88.1039 32.9493H88.2323C88.7277 32.9493 89.1379 32.5401 89.1379 32.0476C89.1379 31.5542 88.7548 31.159 88.2734 31.145H84.2225C83.6127 31.1309 83.032 30.9905 82.5085 30.7508C82.2527 30.6234 82.012 30.483 81.7854 30.3135L81.7573 30.2855C81.5447 30.13 81.3601 29.9615 81.1906 29.7639L81.1335 29.7078L80.9921 29.5383L80.9078 29.4259L80.7935 29.2705C80.7373 29.1862 80.6801 29.102 80.638 29.0177L80.5668 28.8904L80.4826 28.6928L80.4254 28.5664L80.3411 28.3267L80.3121 28.2274C80.284 28.1151 80.2559 28.0028 80.2268 27.8904L80.2138 27.7912C80.1987 27.7069 80.1847 27.6076 80.1706 27.5234L80.1566 27.411C80.1566 27.2977 80.1426 27.1713 80.1426 27.044C80.1426 26.9036 80.1426 26.7762 80.1566 26.6498V26.6067C80.1706 26.4803 80.1847 26.368 80.2138 26.2546L80.2268 26.1844C80.2559 26.0862 80.284 25.9728 80.3121 25.8745L80.3411 25.7762C80.3692 25.677 80.3973 25.5787 80.4394 25.4944L80.4966 25.3811L80.6099 25.1554L80.6942 25.001L80.7804 24.8736L80.9359 24.6489L80.9921 24.5637C81.0633 24.4654 81.1475 24.3802 81.2187 24.2959L81.2478 24.2538C81.3461 24.1545 81.4454 24.0562 81.5447 23.972C82.2678 23.3381 83.2025 22.9429 84.2366 22.9289H91.7867V26.1704ZM76.2883 22.9289C76.5721 22.9289 76.8409 22.9851 77.0966 23.0844H77.1107L77.1247 23.0984L77.21 23.1405L77.3795 23.2248L77.4366 23.2669L77.6061 23.3802L77.6633 23.4224L77.7626 23.4926L77.8047 23.5206C77.918 23.6059 78.0033 23.7042 78.0875 23.8175L78.1166 23.8456C78.23 24.0141 78.3293 24.1976 78.3995 24.3812V24.3942C78.4566 24.5356 78.4847 24.6911 78.5128 24.8455V24.8596L78.5268 25.015V36.2048H75.2693V32.174H69.5034V36.2048H66.2449V25.015H66.2589L66.2729 24.8455V24.8315C66.301 24.6058 66.3722 24.4092 66.4575 24.2117C66.8115 23.4645 67.5768 22.9429 68.4553 22.9289H76.2883ZM101.179 22.9149C102.342 22.9149 103.376 23.3802 104.141 24.1264L104.211 24.0702C104.962 23.3521 105.982 22.9149 107.102 22.9149H114.284V36.1908H110.997V26.1704H107.625C106.592 26.1704 105.756 27.0018 105.756 28.0309V36.1767H102.483V28.0309C102.483 27.0018 101.647 26.1704 100.613 26.1704H97.2557V36.1908L93.9681 36.2048V22.9149H101.179ZM51.3412 22.9149C53.2969 22.9149 53.8205 23.7884 55.6618 25.9728C55.6618 25.9728 60.5632 31.8781 60.847 32.188V22.9149H64.1056V36.1908H61.7818L61.7687 36.1767C60.1821 36.1055 59.4871 35.6692 57.3488 33.0756C57.3488 33.0756 53.2418 28.1592 52.9569 27.8473V36.1908H49.6843L49.6703 22.9149H51.3412ZM48.3946 26.4663C42.8413 29.2284 37.5147 32.4137 32.5 35.9791L41.382 25.4232C43.6627 24.2257 46.0146 23.1124 48.3946 22.0694V26.4663ZM69.4894 28.9746H75.2542V26.1985H69.4894V28.9746ZM116.281 23.2388H116.012V24.1134H115.729V23.2388H115.459V22.9851H116.281V23.2388ZM116.975 23.4785L117.216 22.9851H117.5V24.1134H117.216V23.5778L117.061 23.8456H116.876L116.721 23.5778V24.1134H116.451V22.9851H116.721L116.975 23.4785ZM92.2831 12.9647C99.7059 12.9647 106.945 13.6979 113.944 15.107C109.538 14.6005 105.061 14.3468 100.513 14.3468C86.106 14.3468 72.3217 16.9394 59.5863 21.6612H59.5723C58.0849 22.2108 56.6116 22.8025 55.1524 23.4083C54.1183 22.295 53.1545 21.6461 51.3412 21.6461H49.3865C62.5621 16.0658 77.0545 12.9647 92.2831 12.9647ZM83.7411 11.7812C86.3758 11.7812 88.9965 11.8795 91.5891 12.049H91.3624C74.2353 12.049 57.9997 15.9244 43.5363 22.8587L48.196 17.3205C59.4018 13.7259 71.3448 11.7812 83.7411 11.7812Z" fill="currentColor"/>
</svg>
