<svg xmlns="http://www.w3.org/2000/svg" id="svg2" width="100" height="18" fill="#a4a4c4" version="1.1"><g id="g4" style="stroke-width:28.3333" transform="translate(5.897 -.375) scale(.0353)"><g id="g3" style="stroke-width:22.2222" transform="translate(-228.73 -107.426) scale(1.4572)"><path id="path1" d="M256.532 81.008a174.687 174.702 0 0 0-109.283 37.845 175.08 175.096 0 0 0-49.042 212.854 175.124 175.14 0 0 0 196.605 94.943A175.08 175.096 0 0 0 431 256.016a10.937 10.938 0 0 0-10.937-10.938 10.937 10.938 0 0 0-10.937 10.938c0 71.579-49.435 133.444-119.214 149.283a153.032 153.045 0 0 1-129.101-269.251 153.032 153.045 0 0 1 191.049.612 10.937 10.938 0 0 0 15.4-1.75 10.937 10.938 0 0 0-1.62-15.357 174.862 174.877 0 0 0-109.108-38.545z" style="fill-opacity:1;stroke-width:972.227"/><path id="path2" d="M343.504 256.016a87.497 87.504 0 0 1-87.497 87.504 87.497 87.504 0 0 1-87.496-87.504 87.497 87.504 0 0 1 87.496-87.504 87.497 87.504 0 0 1 87.497 87.504z" style="fill-opacity:1;stroke-width:972.227"/></g></g><path id="text1" d="M29.426 14.599q-1.168 0-2.088-.526-.92-.526-1.445-1.445-.526-.92-.526-2.088 0-1.182.526-2.102.525-.92 1.445-1.445.92-.526 2.088-.526 1.167 0 2.073.526.92.525 1.445 1.445t.54 2.102q0 1.168-.54 2.088-.526.92-1.445 1.445-.906.526-2.073.526zm0-1.022q.846 0 1.518-.395.671-.394 1.05-1.08.38-.686.38-1.562t-.38-1.562q-.379-.7-1.05-1.095-.672-.394-1.518-.394-.847 0-1.519.394-.671.394-1.065 1.095-.38.686-.38 1.562t.38 1.562q.394.686 1.065 1.08.672.395 1.519.395zm11.094.949q-.175 0-.292-.059-.102-.058-.218-.204l-2.526-3.213-.438-.38-2.54-3.226q-.16-.19-.16-.394.014-.204.145-.35.132-.16.38-.16t.423.174l2.453 3.139.394.321 2.715 3.475q.19.233.16.438-.028.204-.189.32-.146.118-.307.118zm-5.78 0q-.234 0-.38-.146-.132-.146-.146-.35 0-.205.16-.395l2.687-3.358.627.832-2.554 3.241q-.132.176-.395.176zm3.415-3.796L37.44 10l2.526-3.197q.102-.146.219-.204.131-.059.262-.059.249 0 .38.16.131.147.117.366 0 .204-.146.394zM44.316 18q-.117 0-.263-.058-.496-.22-.277-.701L48.49 6.847q.22-.467.701-.263.496.204.277.686l-4.73 10.394q-.146.336-.423.336Zm1.62-3.723q-.218.103-.408.044-.19-.073-.307-.292l-3.255-6.744q-.102-.22-.03-.41.074-.189.293-.291.219-.102.408-.03.19.06.292.278l3.197 6.745q.117.219.073.408-.043.19-.262.292zm5.577 3.665q-.263 0-.423-.161-.146-.146-.146-.409v-6.89q.014-1.139.54-2.044.54-.92 1.445-1.445.92-.526 2.059-.526 1.167 0 2.087.54.92.526 1.445 1.446.54.92.54 2.087 0 1.153-.525 2.073-.51.92-1.401 1.46-.89.526-2.015.526-.978 0-1.781-.41-.788-.423-1.27-1.109v4.292q0 .263-.16.409-.147.16-.395.16zm3.475-4.365q.846 0 1.518-.395.671-.394 1.05-1.08.395-.7.395-1.562 0-.876-.394-1.562-.38-.686-1.051-1.08-.672-.409-1.518-.409-.833 0-1.504.409-.672.394-1.051 1.08-.38.686-.38 1.562 0 .861.38 1.562.38.686 1.051 1.08.671.395 1.504.395zm9.401.949q-.774 0-1.387-.365-.598-.365-.949-.993-.35-.642-.35-1.46V4.569q0-.248.146-.408.16-.161.409-.161.248 0 .408.16.161.161.161.41v7.138q0 .745.438 1.226.438.467 1.124.467h.394q.234 0 .38.161.146.16.146.409 0 .248-.175.409-.176.146-.438.146zM60.754 7.81q-.219 0-.365-.131-.146-.146-.146-.35 0-.22.146-.35.146-.147.365-.147h3.723q.219 0 .365.146.146.131.146.35 0 .205-.146.35-.146.132-.365.132zm10 6.789q-1.182 0-2.102-.511-.905-.526-1.43-1.446-.512-.92-.512-2.102 0-1.197.482-2.102.496-.92 1.358-1.445.861-.526 1.985-.526 1.11 0 1.927.511.832.496 1.285 1.387.452.89.452 2.03 0 .233-.146.379-.146.131-.38.131H67.47v-.934h6.322l-.628.452q.014-.846-.307-1.518-.32-.671-.92-1.051-.583-.38-1.4-.38-.833 0-1.46.395-.629.394-.979 1.095-.336.686-.336 1.576t.38 1.577q.394.686 1.066 1.08.671.394 1.547.394.526 0 1.051-.175.54-.19.861-.467.161-.131.365-.131.205-.015.35.102.19.175.19.38.015.204-.16.35-.482.408-1.226.686-.745.263-1.431.263zm5.81-4.993q.044-.905.467-1.62.438-.716 1.124-1.125.701-.408 1.548-.408.671 0 1.036.19t.278.554q-.059.22-.205.292-.131.073-.335.058-.19-.014-.438-.029-.818-.073-1.46.175-.628.234-1.007.73-.365.497-.365 1.183zm.088 4.92q-.263 0-.409-.146-.146-.146-.146-.41V7.096q0-.263.146-.409.146-.146.409-.146t.409.146q.146.146.146.409v6.876q0 .263-.146.409-.146.146-.41.146zm9.182.073q-1.168 0-2.087-.526-.92-.526-1.446-1.445-.525-.92-.525-2.088 0-1.182.525-2.102.526-.92 1.446-1.445.92-.526 2.087-.526 1.168 0 2.073.526.92.525 1.446 1.445.525.92.54 2.102 0 1.168-.54 2.088-.526.92-1.446 1.445-.905.526-2.073.526zm0-1.022q.847 0 1.519-.395.671-.394 1.05-1.08.38-.686.38-1.562t-.38-1.562q-.379-.7-1.05-1.095-.672-.394-1.519-.394-.846 0-1.518.394-.671.394-1.066 1.095-.38.686-.38 1.562t.38 1.562q.395.686 1.066 1.08.672.395 1.518.395zm9.037 1.022q-.861 0-1.708-.292t-1.372-.876q-.161-.176-.132-.395.03-.218.22-.38.204-.145.422-.116.22.03.365.19.35.409.92.628.584.219 1.285.219 1.08 0 1.562-.365.482-.38.496-.905 0-.526-.496-.862-.496-.35-1.635-.54-1.475-.233-2.16-.817-.687-.584-.687-1.387 0-.745.394-1.241.394-.496 1.051-.745.657-.248 1.446-.248.978 0 1.678.336.716.336 1.154.905.146.19.117.394-.03.205-.234.336-.175.102-.409.073-.219-.044-.38-.219-.364-.423-.846-.613-.482-.205-1.11-.205-.802 0-1.284.336-.482.321-.482.818 0 .336.175.584.19.248.628.438.452.19 1.255.32 1.095.176 1.723.526.642.336.905.803.277.453.277.993 0 .686-.408 1.212-.394.51-1.11.803-.7.292-1.62.292z" aria-label="oxypteros" style="font-size:8px;font-family:Comfortaa;-inkscape-font-specification:Comfortaa;word-spacing:0;fill:#ffffff;stroke-width:1;stroke-linecap:round;stroke-linejoin:round"/></svg>
