<svg  viewBox="0 0 150 53" fill="currentColor" xmlns="http://www.w3.org/2000/svg">
<path d="M3.69702 32.3883C3.55802 32.1244 3.44254 31.9114 3.3506 31.7493C3.27946 31.5861 3.2379 31.3901 3.2259 31.1613C3.21609 30.974 3.22817 30.8065 3.26215 30.6587C3.31584 30.489 3.33778 30.3105 3.32797 30.1233C3.30398 29.6656 3.26083 29.2402 3.1985 28.847C3.15698 28.4528 3.10287 28.0176 3.03619 27.5413C3.01211 27.4799 2.93657 27.4317 2.80956 27.3967C2.68255 27.3616 2.54459 27.3167 2.39569 27.2619C2.24569 27.1863 2.10447 27.079 1.972 26.9399C1.86035 26.7997 1.79743 26.5944 1.78326 26.3239C1.77017 26.0742 1.81128 25.8635 1.90658 25.6916C2.0216 25.4978 2.13771 25.3248 2.2549 25.1726C2.37101 24.9997 2.47671 24.8272 2.57201 24.6553C2.68703 24.4616 2.738 24.2398 2.72491 23.9902C2.71946 23.8862 2.69924 23.6995 2.66427 23.4301C2.6282 23.1399 2.59158 22.8393 2.55442 22.5283C2.53807 22.2163 2.5124 21.9256 2.47742 21.6562C2.46216 21.3649 2.4518 21.1673 2.44635 21.0632L2.44307 21.0008L2.4398 20.9384C2.51321 20.7468 2.56745 20.5875 2.60251 20.4605C2.65839 20.3324 2.71589 20.2355 2.77504 20.1698C2.83418 20.1041 2.91522 20.0582 3.01815 20.0319C3.12 19.9848 3.25414 19.957 3.42058 19.9482C3.85748 19.9253 4.18431 19.9916 4.40108 20.1472C4.61785 20.3027 4.77384 20.4927 4.86906 20.7172C4.96318 20.9209 5.02555 21.1158 5.05617 21.302C5.08678 21.4881 5.14425 21.5894 5.22856 21.6059L7.37244 19.5221L7.49727 19.5155C8.20036 18.9989 8.95105 18.5944 9.74935 18.3022C10.5466 17.9893 11.3925 17.8093 12.2871 17.7624C12.5575 17.7483 12.8817 17.7626 13.2594 17.8054C13.658 17.8471 14.0281 17.9424 14.3697 18.0914C14.731 18.2185 15.0326 18.4009 15.2745 18.6385C15.5373 18.8751 15.6785 19.1806 15.6981 19.5551C15.7199 19.9712 15.6902 20.4005 15.6091 20.8428C15.528 21.2852 15.4052 21.7297 15.2409 22.1764C15.0963 22.6012 14.9095 23.0178 14.6805 23.4262C14.4713 23.8127 14.2385 24.1482 13.9823 24.4329C13.8902 24.6672 13.255 25.2846 12.0766 26.2851C10.8982 27.2857 9.1404 28.7756 6.80328 30.7548L21.8318 30.9059C22.0409 30.9158 22.3229 30.9219 22.6777 30.9242C23.0521 30.9046 23.4075 30.9172 23.7436 30.9622C24.1006 31.0061 24.4088 31.1151 24.6682 31.2893C24.9266 31.4426 25.0651 31.6961 25.0836 32.0498C25.0934 32.237 25.0704 32.3947 25.0145 32.5228C24.9784 32.629 24.9209 32.7259 24.842 32.8135C24.7829 32.8792 24.7029 32.946 24.6022 33.0138C24.5222 33.0806 24.4433 33.1682 24.3656 33.2766L23.8351 33.3044L23.3045 33.3322C22.8863 33.3124 22.4466 33.2833 21.9857 33.2448C21.5455 33.2053 21.0216 33.1598 20.4139 33.1082C19.827 33.0555 19.136 33.0082 18.3411 32.9664C17.5462 32.9247 16.5957 32.9014 15.4898 32.8968C14.3839 32.8922 13.0912 32.9078 11.6119 32.9436C10.1534 32.9783 8.45673 33.0464 6.52189 33.1478C6.50108 33.1488 6.47151 33.1817 6.43317 33.2463C6.41564 33.3098 6.40796 33.3623 6.41014 33.404C6.45157 34.1945 6.55488 34.9714 6.72005 35.7347C6.90493 36.476 7.017 37.2212 7.05625 37.9701C7.06389 38.1158 7.0518 38.2833 7.02001 38.4727C7.00792 38.6403 6.96464 38.8094 6.89014 38.9802C6.81455 39.1302 6.71707 39.2605 6.59769 39.3711C6.47832 39.4816 6.32501 39.5418 6.13776 39.5516C6.01293 39.5582 5.86621 39.545 5.69759 39.5121C5.52788 39.4584 5.35708 39.3839 5.18519 39.2886C5.03411 39.1922 4.89288 39.0849 4.76151 38.9666C4.63014 38.8483 4.54969 38.7065 4.52016 38.5412L3.69702 32.3883ZM5.42645 25.3819C5.45371 25.9021 5.48974 26.3904 5.53453 26.847C5.57932 27.3037 5.6367 27.8013 5.70665 28.3401L5.80028 28.3352C5.82108 28.3341 5.872 28.3106 5.95304 28.2646C6.03408 28.2186 6.23559 28.0829 6.55756 27.8574C6.87844 27.6111 7.37017 27.2411 8.03274 26.7474C8.69422 26.2329 9.62675 25.5165 10.8303 24.5981C11.0724 24.4393 11.3297 24.1755 11.6025 23.8066C11.8752 23.4376 12.1255 23.0385 12.3533 22.6094C12.5812 22.1802 12.768 21.7636 12.9137 21.3596C13.0583 20.9348 13.1236 20.5871 13.1094 20.3167C13.0985 20.1086 12.989 20.01 12.781 20.0209C12.5937 20.0308 12.4273 20.0395 12.2816 20.0471C11.9696 20.0635 11.6186 20.134 11.2288 20.2588C10.8389 20.3835 10.3713 20.6166 9.82596 20.9581C9.30139 21.2986 8.66948 21.7802 7.93023 22.4031C7.21179 23.0249 6.36847 23.8514 5.40029 24.8826L5.42645 25.3819ZM32.2459 29.4214C32.0761 29.764 31.8789 30.1812 31.6543 30.6728C31.4494 31.1425 31.2259 31.6549 30.9838 32.21C30.7406 32.7443 30.4668 33.2906 30.1622 33.849C29.8774 34.3855 29.5696 34.8814 29.2388 35.3368C28.9289 35.7912 28.5948 36.1842 28.2367 36.5159C27.8774 36.8268 27.5018 37.0238 27.1098 37.1069C26.9434 37.1157 26.7556 37.1151 26.5464 37.1052C26.3362 37.0745 26.1254 37.0334 25.9141 36.9818C25.7017 36.9095 25.5194 36.8148 25.3672 36.6976C25.2348 36.5585 25.1626 36.3745 25.1506 36.1457C25.0602 34.0225 25.1153 32.0899 25.3161 30.3478C25.5158 28.5849 25.8933 27.0318 26.4488 25.6884C27.0032 24.3242 27.7464 23.1795 28.6784 22.2545C29.6104 21.3294 30.7636 20.6432 32.1379 20.1956C32.1795 20.1934 32.2523 20.1896 32.3563 20.1842C32.4801 20.1568 32.5627 20.1421 32.6043 20.1399C33.2274 20.0864 33.69 20.3542 33.9921 20.9434C34.3138 21.5106 34.571 22.4359 34.7634 23.7193C34.9755 24.9807 35.1553 26.6194 35.3027 28.6353C35.4697 30.6293 35.7101 33.0262 36.0237 35.8262C36.0982 36.0518 36.1397 36.2478 36.1484 36.4142C36.178 36.5795 36.1987 36.7766 36.2107 37.0055C36.2271 37.3176 36.146 37.5617 35.9675 37.738C35.7879 37.8934 35.5524 37.9788 35.2612 37.9941C34.6578 38.0257 34.2226 37.8816 33.9555 37.5618C33.6884 37.242 33.4985 36.8034 33.3859 36.2461C33.3848 36.2252 33.3552 36.0599 33.2973 35.75C33.2601 35.439 33.2 35.0875 33.1168 34.6955C33.0534 34.2816 32.99 33.8677 32.9266 33.4538C32.8632 33.0398 32.814 32.6982 32.779 32.4288L32.7725 32.304C32.7199 32.0981 32.6751 31.8397 32.6379 31.5287C32.6216 31.2167 32.585 30.9161 32.5281 30.627C32.468 30.2755 32.4182 29.9234 32.3789 29.5709L32.2459 29.4214ZM31.2355 23.2783C30.6956 23.7239 30.1737 24.3145 29.6698 25.0502C29.166 25.7859 28.8171 26.4926 28.6231 27.1704C28.5354 27.4879 28.4433 27.9204 28.3469 28.4679C28.2504 29.0153 28.1643 29.5622 28.0886 30.1086C28.0327 30.6331 27.9855 31.1258 27.9471 31.5868C27.9075 32.027 27.891 32.3095 27.8976 32.4343C27.9184 32.4332 27.9381 32.4113 27.9567 32.3686C27.9962 32.3248 28.0257 32.292 28.0454 32.2701C29.2699 30.9542 30.1046 29.5649 30.5495 28.1021C31.0141 26.6174 31.2428 25.0095 31.2355 23.2783ZM36.7276 34.1621C36.5493 33.5455 36.5106 32.807 36.6115 31.9463C36.7332 31.0846 36.9382 30.2185 37.2264 29.3481C37.5342 28.4558 37.9177 27.6116 38.3766 26.8157C38.8564 26.0186 39.3652 25.3766 39.9029 24.8894C40.4615 24.4012 41.0309 24.121 41.6113 24.0488C42.2113 23.9548 42.7971 24.1849 43.3686 24.7391C43.3696 24.7599 43.3828 24.8113 43.4079 24.8935C43.4331 24.9756 43.4632 25.1514 43.4982 25.4207C43.532 25.6693 43.5615 26.0328 43.5866 26.5113C43.6314 26.968 43.6751 27.602 43.7176 28.4133C43.7406 28.4539 43.7652 28.5256 43.7914 28.6285C43.8374 28.7096 43.8615 28.7709 43.8637 28.8125C43.8132 29.0446 43.6999 29.2696 43.5235 29.4875C43.3669 29.6834 43.1534 29.7885 42.8829 29.8027C42.5292 29.8212 42.2352 29.7845 42.0009 29.6924C41.7863 29.5785 41.6156 29.3058 41.4887 28.8744C41.527 28.8098 41.5309 28.6844 41.5002 28.4983C41.4685 28.2913 41.4149 28.0646 41.3394 27.8182C41.2847 27.5708 41.23 27.3233 41.1753 27.0758C41.1206 26.8283 41.0895 26.6318 41.0819 26.4861C41.061 26.4872 41.0309 26.5097 40.9915 26.5535C40.9718 26.5754 40.9521 26.5973 40.9324 26.6192C40.6114 27.2618 40.315 27.9762 40.0433 28.7624C39.7913 29.5266 39.6028 30.3084 39.4778 31.1077C39.3725 31.8851 39.3608 32.6576 39.4428 33.4252C39.5455 34.1917 39.8109 34.8767 40.2389 35.4801C40.5302 35.4648 40.7946 35.3362 41.0323 35.0943C41.2689 34.8315 41.4649 34.5918 41.6205 34.375C41.9523 33.9404 42.2733 33.4959 42.5832 33.0416C42.914 32.5861 43.2125 32.1115 43.4787 31.6177C43.5926 31.4031 43.6764 31.211 43.7301 31.0413C43.7838 30.8716 43.8496 30.7325 43.9273 30.6241C44.0259 30.5147 44.1464 30.4249 44.2887 30.3549C44.4311 30.2848 44.6479 30.2422 44.9392 30.2269C45.272 30.2095 45.5885 30.2763 45.8885 30.4275C46.1874 30.5579 46.3461 30.7999 46.3646 31.1536C46.3897 31.6321 46.2029 32.2469 45.8041 32.9979C45.4251 33.7271 44.941 34.4409 44.3517 35.1394C43.7833 35.8367 43.1683 36.4427 42.5068 36.9572C41.8442 37.4509 41.2529 37.7113 40.7328 37.7386C40.2335 37.7648 39.7396 37.6968 39.2513 37.5346C38.7827 37.3505 38.3629 37.1013 37.9917 36.787C37.6414 36.4716 37.3502 36.0904 37.1182 35.6436C36.8862 35.1968 36.756 34.703 36.7276 34.1621ZM46.6809 22.0933C46.6571 20.8429 46.5396 19.5973 46.3286 18.3567C46.1175 17.116 45.9798 15.8819 45.9155 14.6545C45.8948 14.2592 45.9967 14.0139 46.2212 13.9187C46.4446 13.8027 46.7019 13.737 46.9932 13.7218C47.4093 13.7 47.7585 13.7964 48.041 14.0111C48.3235 14.2258 48.4964 14.5401 48.5598 14.954C48.8659 17.2119 49.0877 19.4534 49.2251 21.6784C49.3823 23.8815 49.6556 26.1098 50.0449 28.3634C50.6069 27.1448 51.2006 26.1332 51.826 25.3285C52.4514 24.5238 53.0592 23.9809 53.6495 23.6996C54.2606 23.4172 54.825 23.4398 55.3429 23.7673C55.8804 24.0729 56.332 24.7273 56.6975 25.7304C57.0619 26.7126 57.3211 28.0759 57.4751 29.8203C57.628 31.5438 57.6368 33.7025 57.5015 36.2965C57.3559 36.3041 57.1796 36.3238 56.9727 36.3555C56.7646 36.3664 56.556 36.3669 56.3469 36.357C56.1585 36.346 55.9899 36.3131 55.841 36.2584C55.6921 36.2036 55.6029 36.0935 55.5734 35.9282C55.658 34.3591 55.683 33.0435 55.6482 31.9813C55.6134 30.9192 55.5364 30.047 55.4172 29.3648C55.298 28.6826 55.1563 28.1685 54.9921 27.8225C54.8268 27.4556 54.6566 27.1933 54.4815 27.0356C54.3063 26.8779 54.1355 26.8034 53.9691 26.8121C53.8224 26.799 53.7079 26.805 53.6258 26.8301C53.1768 27.0205 52.7612 27.4491 52.3789 28.1159C52.0174 28.7816 51.7134 29.5485 51.4668 30.4168C51.2202 31.285 51.0492 32.2015 50.9537 33.1661C50.878 34.1089 50.8909 34.9531 50.9926 35.6988C50.9805 35.8664 50.9684 36.0339 50.9563 36.2014C50.9443 36.3689 50.9108 36.5272 50.8561 36.6761C50.8221 36.8239 50.7454 36.9531 50.626 37.0636C50.5264 37.1523 50.3621 37.2026 50.1332 37.2146C49.6963 37.2375 49.3388 37.1833 49.0608 37.0518C48.8024 36.8984 48.5938 36.7007 48.4351 36.4587C48.2972 36.2156 48.1987 35.9287 48.1397 35.598C48.1014 35.2662 48.0938 34.9224 48.1169 34.5665L46.6809 22.0933ZM70.7423 27.2474C70.7204 27.624 70.6836 27.918 70.6321 28.1294C70.6014 28.3396 70.528 28.5312 70.4119 28.7042C70.2958 28.8772 70.1282 29.0633 69.9092 29.2625C69.689 29.4409 69.39 29.7069 69.0122 30.0605C68.6333 30.3933 68.1662 30.835 67.6109 31.3857C67.0556 31.9363 66.3837 32.6496 65.5951 33.5254C65.2786 33.8549 64.9522 34.1954 64.616 34.5468C64.2797 34.8982 63.9211 35.2195 63.5399 35.5106C63.1785 35.7799 62.7942 36.0087 62.3868 36.1969C61.9794 36.3852 61.5469 36.4913 61.0892 36.5153C60.1946 36.5622 59.5234 36.2949 59.0757 35.7133C58.628 35.1318 58.3834 34.4457 58.342 33.6551C58.3147 33.135 58.3022 32.6976 58.3045 32.3428C58.3275 31.9869 58.3868 31.5249 58.4822 30.9566C58.2424 30.7606 58.0355 30.5941 57.8614 30.4572C57.6863 30.2994 57.5916 30.0854 57.5774 29.8149C57.5643 29.5652 57.6076 29.3961 57.7073 29.3074C57.8278 29.2176 57.9603 29.1585 58.1048 29.1301C58.2691 29.0798 58.4229 29.03 58.5664 28.9807C58.7098 28.9315 58.8095 28.8428 58.8654 28.7147C58.9004 28.5877 58.9613 28.3551 59.0478 28.0167C59.1552 27.6773 59.2621 27.3275 59.3683 26.9673C59.4735 26.5862 59.57 26.237 59.6577 25.9194C59.765 25.58 59.8363 25.3468 59.8713 25.2198C59.9984 24.8585 60.1359 24.4966 60.2838 24.1342C60.4514 23.7499 60.6421 23.4061 60.8556 23.1029C61.09 22.7985 61.3584 22.5446 61.6606 22.341C61.9837 22.1363 62.3637 22.0225 62.8006 21.9996C63.0502 21.9865 63.3579 22.0851 63.7236 22.2954C64.11 22.5047 64.4784 22.767 64.8288 23.0824C65.178 23.377 65.4763 23.6952 65.7237 24.0369C65.9711 24.3786 66.1013 24.6742 66.1144 24.9239C66.1308 25.236 66.0732 25.5311 65.9417 25.8092C65.8092 26.0664 65.6345 26.3155 65.4176 26.5564C65.2205 26.7753 65.002 26.9849 64.7621 27.1853C64.5223 27.3856 64.3027 27.5744 64.1034 27.7518C64.0826 27.7529 64.0421 27.7759 63.9818 27.8207C63.9216 27.8656 63.8712 27.8995 63.8307 27.9225C63.811 27.9444 63.7617 27.9992 63.6828 28.0867C63.6237 28.1524 63.5547 28.2291 63.4758 28.3166C63.397 28.4042 63.3181 28.4918 63.2393 28.5794C63.1812 28.6659 63.1423 28.7201 63.1226 28.742C63.0635 28.8076 62.9441 28.9182 62.7645 29.0737C62.6046 29.2072 62.425 29.3627 62.2257 29.54C62.0252 29.6965 61.8352 29.8525 61.6556 30.008C61.4957 30.1415 61.3857 30.2307 61.3254 30.2756L61.2137 30.5318C61.1764 30.6172 61.1446 30.8066 61.1183 31.1001C61.1117 31.3716 61.0968 31.6854 61.0737 32.0412C61.0507 32.3971 61.0281 32.7633 61.0061 33.14C61.0039 33.4948 61.0087 33.7866 61.0207 34.0154C61.0218 34.0363 61.0333 34.0565 61.0552 34.0762C61.099 34.1157 61.1313 34.1348 61.1521 34.1337C61.3185 34.125 61.4708 34.044 61.6088 33.8907C61.7468 33.7375 61.8973 33.6253 62.0605 33.5541L66.8116 28.6738L67.9881 26.6407C68.0845 26.4896 68.2739 26.3232 68.5565 26.1415C68.8587 25.9379 69.1659 25.8279 69.478 25.8116C69.7889 25.7744 70.0643 25.8539 70.3041 26.0499C70.5646 26.2449 70.7107 26.644 70.7423 27.2474ZM63.7492 25.173C63.8489 25.0844 63.8839 24.9574 63.8544 24.792C63.8249 24.6267 63.7548 24.4843 63.6443 24.3649C63.5545 24.2444 63.4363 24.1776 63.2895 24.1645C63.1417 24.1305 63.0103 24.2104 62.8953 24.4042C62.8372 24.4907 62.7315 24.6631 62.5782 24.9215C62.4456 25.1788 62.3032 25.447 62.151 25.7262C62.0184 25.9835 61.905 26.2085 61.8108 26.4012C61.7166 26.5939 61.6996 26.6678 61.7599 26.6229L63.7492 25.173ZM71.2259 33.9187C71.1801 33.0449 71.1562 32.1908 71.1542 31.3565C71.1522 30.5221 71.1283 29.668 71.0825 28.7942C70.8958 26.4257 70.7534 24.1071 70.6554 21.8383C70.5562 19.5487 70.3296 17.2136 69.9753 14.833C69.9546 14.4377 70.0346 14.1728 70.2153 14.0381C70.3949 13.8827 70.672 13.7951 71.0464 13.7755C71.525 13.7504 71.9383 13.8748 72.2864 14.1486C72.6543 14.4005 72.8617 14.7756 72.9087 15.2738C73.0219 18.2303 73.2068 21.1621 73.4635 24.0694C73.7399 26.9547 73.956 29.8849 74.1119 32.86L74.2379 35.2629C74.1218 35.4359 73.9537 35.6116 73.7335 35.79C73.5134 35.9685 73.2878 36.0429 73.0568 36.0133C72.448 35.9409 71.9986 35.7245 71.7085 35.3642C71.4173 34.9831 71.2564 34.5012 71.2259 33.9187ZM91.3652 33.9272C91.6741 33.4521 92.0202 33.0897 92.4035 32.8401C92.8076 32.5895 93.2139 32.3804 93.6223 32.213C94.0516 32.0445 94.471 31.8869 94.8806 31.7402C95.3098 31.5717 95.7243 31.3205 96.1241 30.9866C96.3464 30.8498 96.659 30.6457 97.0621 30.3742C97.4651 30.1027 97.8566 29.811 98.2366 29.499C98.6364 29.1651 98.9742 28.8449 99.2502 28.5384C99.547 28.2308 99.69 27.973 99.6791 27.7649C99.678 27.7441 99.667 27.7342 99.6462 27.7353C99.6046 27.7375 99.5833 27.7282 99.5822 27.7074L99.5165 27.6483C99.4103 27.6121 99.2411 27.5688 99.009 27.5184C98.7769 27.468 98.6395 27.4334 98.5968 27.4148C95.8966 27.2434 93.7187 27.0863 92.0632 26.9436C90.4273 26.779 89.155 26.5849 88.2462 26.3613C87.3582 26.1367 86.7593 25.8551 86.4495 25.5167C86.1397 25.1783 85.9707 24.7386 85.9423 24.1977C85.9314 23.9896 85.961 23.7586 86.0312 23.5046C86.1013 23.2506 86.1818 22.996 86.2728 22.7409C86.3845 22.4847 86.4974 22.2493 86.6113 22.0347C86.7252 21.8201 86.8309 21.6477 86.9284 21.5174C87.2395 21.0839 87.6567 20.6865 88.1802 20.3253C88.7037 19.964 89.271 19.6422 89.882 19.3599C90.4931 19.0775 91.1058 18.8263 91.7201 18.6064C92.3552 18.3854 92.9291 18.1884 93.4415 18.0155C94.0219 17.9434 94.5973 17.7776 95.1679 17.5182C95.7581 17.2369 96.3423 17.0394 96.9205 16.9257C97.2118 16.9104 97.457 17.0123 97.6563 17.2313C97.8555 17.4504 97.9617 17.6847 97.9748 17.9344C97.9933 18.2881 97.9347 18.5623 97.7988 18.7572C97.6827 18.9302 97.513 19.0747 97.2896 19.1907C97.0859 19.2848 96.8504 19.3702 96.5833 19.4468C96.315 19.5026 96.0472 19.5688 95.78 19.6453C95.6158 19.6957 95.3902 19.7701 95.1033 19.8686C94.8153 19.9462 94.5279 20.0343 94.2409 20.1328C93.954 20.2313 93.6978 20.3177 93.4722 20.3921C93.2466 20.4666 93.1136 20.5153 93.0731 20.5382C92.4423 20.8425 91.8422 21.1347 91.2727 21.4149C90.723 21.6732 90.2362 21.9386 89.8124 22.2112C89.4094 22.4826 89.0907 22.7705 88.8563 23.0749C88.6416 23.3574 88.5534 23.6645 88.5917 23.9963L88.5933 24.0275C88.8166 24.3078 89.2962 24.5018 90.032 24.6092C90.7678 24.7167 91.6273 24.7968 92.6106 24.8496C93.6147 24.9013 94.6603 24.9508 95.7476 24.9981C96.8557 25.0444 97.873 25.1475 98.7993 25.3076C99.7256 25.4677 100.5 25.7087 101.122 26.0308C101.743 26.3528 102.081 26.815 102.133 27.4173C102.145 27.6461 102.107 27.9193 102.019 28.2368C101.953 28.5532 101.84 28.799 101.683 28.9742C101.193 29.584 100.601 30.22 99.905 30.8824C99.2304 31.5436 98.4911 32.1664 97.6873 32.751C96.8824 33.3147 96.0424 33.8073 95.1674 34.2286C94.3122 34.6281 93.4597 34.8814 92.61 34.9885C92.3187 35.0038 92.0428 34.9139 91.7822 34.719C91.5206 34.5032 91.3816 34.2393 91.3652 33.9272ZM105.435 25.1789C105.144 25.1941 104.888 25.2806 104.667 25.4382C104.445 25.5958 104.179 25.6828 103.867 25.6992C103.825 25.7013 103.711 25.7073 103.523 25.7172C103.356 25.7051 103.251 25.7001 103.21 25.7023C103.121 25.6026 103.023 25.5243 102.916 25.4674C102.808 25.4104 102.701 25.3534 102.594 25.2965C102.486 25.2187 102.387 25.13 102.298 25.0303C102.23 24.9296 102.192 24.7856 102.182 24.5983C102.165 24.2863 102.277 24.0301 102.517 23.8297C102.756 23.6086 103.038 23.4165 103.363 23.2534C103.688 23.0903 104.014 22.9377 104.34 22.7954C104.688 22.652 104.961 22.4917 105.16 22.3143L105.088 20.9412C105.007 19.4017 104.854 17.8659 104.628 16.334C104.4 14.7813 104.247 13.2455 104.167 11.7268C104.145 11.3107 104.235 11.0348 104.437 10.8991C104.638 10.7633 104.916 10.6862 105.269 10.6676C105.686 10.6458 105.994 10.7549 106.194 10.9947C106.414 11.2127 106.575 11.4963 106.677 11.8456C106.777 12.1741 106.838 12.536 106.859 12.9313C106.878 13.3058 106.906 13.6277 106.941 13.8971C106.955 14.1676 107.001 14.645 107.078 15.3294C107.156 16.0137 107.236 16.7397 107.318 17.5073C107.4 18.2749 107.479 19.0009 107.557 19.6853C107.635 20.3697 107.691 20.8465 107.726 21.1159C107.808 21.0907 107.961 21.0306 108.186 20.9353C108.43 20.8182 108.685 20.711 108.951 20.6136C109.216 20.4954 109.461 20.3887 109.686 20.2935C109.931 20.1972 110.104 20.1255 110.206 20.0784C110.735 19.8212 111.284 19.5421 111.852 19.2411C112.419 18.9193 113.005 18.7426 113.608 18.711C114.024 18.6892 114.344 18.8185 114.567 19.0988C114.81 19.3573 114.942 19.6738 114.961 20.0483C114.975 20.3187 114.882 20.5218 114.68 20.6576C114.479 20.7933 114.266 20.9192 114.043 21.0352L108.474 23.4549C108.414 23.4998 108.354 23.5447 108.294 23.5896C108.232 23.6137 108.172 23.6585 108.113 23.7242L108.165 24.7229C108.203 25.451 108.254 26.2099 108.316 26.9993C108.398 27.7669 108.51 28.5121 108.652 29.2348C108.789 29.8535 108.935 30.4612 109.092 31.058C109.248 31.6548 109.343 32.2653 109.376 32.8895C109.385 33.0767 109.336 33.3296 109.228 33.6482C109.119 33.9669 108.93 34.1332 108.659 34.1474C108.097 34.1769 107.631 34.0344 107.26 33.7201C106.889 33.4057 106.668 32.9688 106.597 32.4092C106.436 31.3328 106.259 30.153 106.067 28.8696C105.895 27.5852 105.726 26.3527 105.56 25.1723L105.435 25.1789ZM115.564 28.9977L116.298 20.917C116.326 20.6443 116.43 20.4407 116.611 20.3061C116.812 20.1703 117.038 20.0959 117.287 20.0828C117.745 20.0588 118.116 20.175 118.401 20.4313C118.684 20.6668 118.93 20.9668 119.137 21.3315L119.168 21.3299C119.417 21.3168 119.634 21.2637 119.817 21.1707C120.019 21.0558 120.266 20.9907 120.557 20.9754C121.223 20.9405 121.796 21.1191 122.275 21.5112C122.776 21.9023 123.187 22.3918 123.51 22.9799C123.832 23.5472 124.073 24.1708 124.234 24.8508C124.416 25.5297 124.52 26.1293 124.547 26.6494C124.58 27.2735 124.45 27.9792 124.158 28.7664C123.886 29.5526 123.497 30.3031 122.993 31.018C122.508 31.7318 121.945 32.335 121.304 32.8276C120.662 33.3202 119.998 33.5845 119.311 33.6205C118.687 33.6532 118.138 33.5359 117.666 33.2686C117.213 33.0002 116.83 32.6552 116.516 32.2336C116.222 31.7901 115.997 31.2907 115.843 30.7355C115.689 30.1803 115.597 29.6323 115.569 29.0914L115.564 28.9977ZM118.195 29.0476C118.248 29.2535 118.302 29.4905 118.358 29.7588C118.414 30.0271 118.489 30.2735 118.584 30.498C118.678 30.7017 118.802 30.8621 118.954 30.9793C119.126 31.0746 119.354 31.0626 119.64 30.9433C119.898 30.6795 120.174 30.3834 120.47 30.0549C120.766 29.7265 121.039 29.3784 121.291 29.0105C121.564 28.6416 121.784 28.2545 121.95 27.8494C122.117 27.4443 122.189 27.0233 122.166 26.5864C122.212 25.8747 122.126 25.2325 121.908 24.6598C121.689 24.0662 121.397 23.6539 121.03 23.4228C120.683 23.1698 120.296 23.1587 119.87 23.3897C119.443 23.5998 119.034 24.1532 118.643 25.0499C118.422 25.604 118.278 26.2478 118.212 26.9814C118.166 27.6931 118.159 28.3506 118.19 28.954L118.195 29.0476ZM134.149 31.7476C133.835 31.3468 133.556 30.7877 133.31 30.0705C133.083 29.3313 132.855 28.561 132.625 27.7594C132.415 26.9359 132.217 26.1431 132.031 25.381C131.844 24.598 131.655 23.982 131.465 23.5331C131.294 23.0622 131.114 22.8004 130.923 22.7478C130.733 22.6952 130.529 22.9876 130.312 23.6248L128.035 32.1306C127.946 32.4273 127.832 32.6419 127.693 32.7744C127.553 32.886 127.317 32.9506 126.984 32.968C126.817 32.9767 126.639 32.9652 126.45 32.9334C126.26 32.8808 126.078 32.8069 125.906 32.7116C125.735 32.6163 125.582 32.4991 125.45 32.36C125.338 32.2198 125.267 32.0566 125.236 31.8705C125.286 31.6175 125.314 31.1571 125.321 30.4892C125.348 29.8201 125.349 29.0482 125.324 28.1733C125.299 27.2984 125.262 26.3824 125.212 25.4254C125.181 24.4465 125.134 23.5415 125.069 22.7104C125.025 21.8574 124.976 21.1298 124.924 20.5275C124.87 19.9045 124.828 19.4999 124.797 19.3137C124.787 19.1057 124.776 18.8976 124.765 18.6896C124.774 18.4596 124.794 18.25 124.826 18.0605C124.878 17.87 124.964 17.7195 125.084 17.6089C125.223 17.4765 125.438 17.4026 125.729 17.3873C126.124 17.3666 126.497 17.514 126.848 17.8294C127.219 18.1437 127.414 18.4882 127.434 18.8626C127.462 19.4036 127.459 19.9461 127.425 20.4903C127.411 21.0126 127.418 21.5442 127.446 22.0852C127.464 22.418 127.478 22.6989 127.49 22.9278C127.502 23.1566 127.559 23.4353 127.659 23.7638C127.713 23.5941 127.802 23.2974 127.926 22.8736C128.049 22.4499 128.183 22.0048 128.325 21.5384C128.488 21.0709 128.632 20.6357 128.757 20.2328C128.881 19.809 128.97 19.5123 129.024 19.3426C129.147 18.9189 129.345 18.5121 129.617 18.1224C129.887 17.7118 130.261 17.4732 130.737 17.4065C131.048 17.3694 131.333 17.4379 131.593 17.612C131.873 17.7851 132.115 18.0227 132.319 18.325C132.521 18.6065 132.693 18.9104 132.836 19.2367C132.977 19.5422 133.085 19.8078 133.159 20.0334L135.252 27.7156L136.749 31.2045C136.771 31.2243 136.784 31.2861 136.79 31.3902C136.794 31.4734 136.797 31.5358 136.799 31.5774C136.813 31.8271 136.763 32.08 136.651 32.3362C136.559 32.5705 136.368 32.6953 136.077 32.7105C135.723 32.7291 135.354 32.6545 134.97 32.4869C134.584 32.2985 134.31 32.0521 134.149 31.7476ZM149.851 23.1015C149.829 23.4781 149.793 23.7721 149.741 23.9834C149.71 24.1937 149.637 24.3853 149.521 24.5582C149.405 24.7312 149.237 24.9173 149.018 25.1166C148.798 25.295 148.499 25.561 148.121 25.9146C147.742 26.2474 147.275 26.6891 146.72 27.2398C146.165 27.7904 145.493 28.5036 144.704 29.3794C144.388 29.709 144.061 30.0494 143.725 30.4008C143.389 30.7523 143.03 31.0735 142.649 31.3647C142.287 31.634 141.903 31.8628 141.496 32.051C141.088 32.2393 140.656 32.3454 140.198 32.3694C139.303 32.4162 138.632 32.1489 138.185 31.5674C137.737 30.9859 137.492 30.2998 137.451 29.5092C137.424 28.9891 137.411 28.5517 137.413 28.1969C137.436 27.841 137.496 27.379 137.591 26.8107C137.351 26.6146 137.144 26.4481 136.97 26.3112C136.795 26.1535 136.701 25.9394 136.686 25.669C136.673 25.4193 136.717 25.2502 136.816 25.1615C136.937 25.0717 137.069 25.0126 137.214 24.9842C137.378 24.9339 137.532 24.8841 137.675 24.8348C137.819 24.7856 137.918 24.6969 137.974 24.5688C138.009 24.4418 138.07 24.2091 138.157 23.8708C138.264 23.5314 138.371 23.1816 138.477 22.8213C138.582 22.4403 138.679 22.091 138.767 21.7735C138.874 21.4341 138.945 21.2009 138.98 21.0739C139.107 20.7126 139.245 20.3507 139.393 19.9883C139.56 19.604 139.751 19.2602 139.965 18.957C140.199 18.6526 140.467 18.3986 140.77 18.195C141.093 17.9903 141.473 17.8766 141.909 17.8537C142.159 17.8406 142.467 17.9392 142.832 18.1495C143.219 18.3587 143.587 18.6211 143.938 18.9365C144.287 19.2311 144.585 19.5493 144.833 19.891C145.08 20.2326 145.21 20.5283 145.223 20.778C145.24 21.0901 145.182 21.3851 145.051 21.6632C144.918 21.9205 144.743 22.1696 144.527 22.4104C144.329 22.6294 144.111 22.839 143.871 23.0393C143.631 23.2397 143.412 23.4285 143.212 23.6059C143.192 23.6069 143.151 23.6299 143.091 23.6748C143.031 23.7197 142.98 23.7536 142.94 23.7766C142.92 23.7985 142.871 23.8532 142.792 23.9408C142.733 24.0065 142.664 24.0831 142.585 24.1707C142.506 24.2583 142.427 24.3459 142.348 24.4335C142.29 24.52 142.251 24.5741 142.232 24.596C142.172 24.6617 142.053 24.7723 141.873 24.9277C141.714 25.0613 141.534 25.2167 141.335 25.3941C141.134 25.5506 140.944 25.7066 140.765 25.8621C140.605 25.9956 140.495 26.0848 140.434 26.1297L140.323 26.3859C140.285 26.4713 140.254 26.6607 140.227 26.9542C140.221 27.2257 140.206 27.5394 140.183 27.8953C140.16 28.2512 140.137 28.6174 140.115 28.9941C140.113 29.3489 140.118 29.6407 140.13 29.8695C140.131 29.8903 140.142 29.9106 140.164 29.9303C140.208 29.9697 140.24 29.9889 140.261 29.9878C140.427 29.9791 140.58 29.8981 140.718 29.7448C140.856 29.5916 141.006 29.4794 141.169 29.4082L145.921 24.5279L147.097 22.4948C147.193 22.3437 147.383 22.1773 147.665 21.9956C147.968 21.792 148.275 21.682 148.587 21.6657C148.898 21.6285 149.173 21.7079 149.413 21.904C149.674 22.099 149.82 22.4981 149.851 23.1015ZM142.858 21.0271C142.958 20.9384 142.993 20.8114 142.963 20.6461C142.934 20.4807 142.864 20.3384 142.753 20.219C142.663 20.0985 142.545 20.0317 142.398 20.0185C142.251 19.9846 142.119 20.0645 142.004 20.2582C141.946 20.3447 141.84 20.5172 141.687 20.7755C141.555 21.0328 141.412 21.3011 141.26 21.5803C141.127 21.8375 141.014 22.0625 140.92 22.2552C140.826 22.4479 140.809 22.5218 140.869 22.477L142.858 21.0271Z"/>
</svg>
