<svg width="24" height="24" viewBox="0 0 24 24" fill="none" stroke="currentColor" xmlns="http://www.w3.org/2000/svg">
<path d="M17.9279 19.6339H20.0649C20.2539 19.6369 20.4399 19.5949 20.6079 19.5109C20.7759 19.4259 20.9219 19.3019 21.0309 19.1489C21.1409 18.9959 21.2119 18.8189 21.2379 18.6319C21.2649 18.4459 21.2449 18.2559 21.1819 18.0789C20.6369 16.9119 19.7739 15.9219 18.6919 15.2229C17.6099 14.5249 16.3529 14.1449 15.0649 14.1279"  stroke-width="1.5" stroke-linecap="round" stroke-linejoin="round"/>
<path d="M15.0649 11.3702C15.5459 11.3702 16.0229 11.2762 16.4669 11.0922C16.9119 10.9072 17.3159 10.6372 17.6559 10.2972C17.9959 9.95723 18.2659 9.55323 18.4509 9.10823C18.6349 8.66423 18.7299 8.18723 18.7299 7.70623C18.7309 7.22423 18.6369 6.74623 18.4529 6.30123C18.2699 5.85523 17.9999 5.45023 17.6599 5.10923C17.3189 4.76723 16.9149 4.49723 16.4699 4.31223C16.0239 4.12723 15.5469 4.03223 15.0649 4.03223"  stroke-width="1.5" stroke-linecap="round" stroke-linejoin="round"/>
<path d="M14.0251 20.8282C14.3771 20.8272 14.7221 20.7292 15.0221 20.5442C15.3211 20.3592 15.5641 20.0952 15.7231 19.7812C15.8821 19.4672 15.9511 19.1152 15.9231 18.7642C15.8941 18.4132 15.7691 18.0772 15.5611 17.7932C14.8331 16.8252 13.8951 16.0352 12.8171 15.4812C11.7401 14.9272 10.5511 14.6252 9.34008 14.5962C8.12808 14.6252 6.93908 14.9272 5.86208 15.4812C4.78408 16.0352 3.84608 16.8252 3.11808 17.7932C2.91008 18.0772 2.78508 18.4132 2.75608 18.7642C2.72808 19.1152 2.79708 19.4672 2.95608 19.7812C3.11508 20.0952 3.35808 20.3592 3.65708 20.5442C3.95708 20.7292 4.30208 20.8272 4.65408 20.8282H14.0251Z" stroke-width="1.5" stroke-linecap="round" stroke-linejoin="round"/>
<path d="M9.33899 11.4849C10.441 11.4819 11.497 11.0429 12.275 10.2629C13.053 9.48285 13.49 8.42585 13.49 7.32385C13.49 6.22285 13.053 5.16685 12.274 4.38885C11.496 3.60985 10.44 3.17285 9.33899 3.17285C8.23799 3.17285 7.18199 3.60985 6.40399 4.38885C5.62499 5.16685 5.18799 6.22285 5.18799 7.32385C5.18799 8.42585 5.62499 9.48285 6.40299 10.2629C7.18099 11.0429 8.23699 11.4819 9.33899 11.4849Z" stroke-width="1.5" stroke-linecap="round" stroke-linejoin="round"/>
</svg>
