<svg viewBox="0 0 24 24" fill="none" stroke="currentColor" stroke-width="1.5" stroke-linecap="round" stroke-linejoin="round" xmlns="http://www.w3.org/2000/svg">
<path d="M8.66992 10.909L10.5439 12.783C10.6099 12.85 10.6889 12.903 10.7749 12.939C10.8619 12.975 10.9549 12.993 11.0479 12.993C11.1419 12.993 11.2349 12.975 11.3219 12.939C11.4079 12.903 11.4869 12.85 11.5529 12.783L15.3289 9.00601"  />
<path d="M20.6719 11.89V6.60899C20.6729 6.20399 20.5449 5.80899 20.3079 5.48099C20.0709 5.15199 19.7369 4.90599 19.3519 4.77899L14.4379 3.14099C12.8549 2.61999 11.1459 2.61999 9.56188 3.14099L4.64788 4.77899C4.26388 4.90599 3.92888 5.15199 3.69188 5.48099C3.45488 5.80899 3.32788 6.20399 3.32788 6.60899V11.89C3.32788 13.193 3.65888 14.475 4.28888 15.616C4.91888 16.757 5.82888 17.719 6.93188 18.413L10.9789 20.957C11.2849 21.149 11.6389 21.25 11.9999 21.25C12.3609 21.25 12.7149 21.149 13.0219 20.957L17.0689 18.413C18.1719 17.719 19.0809 16.757 19.7109 15.616C20.3409 14.475 20.6719 13.193 20.6719 11.89Z"/>
</svg>
