<svg width="32" height="32" viewBox="0 0 32 32" fill="none" xmlns="http://www.w3.org/2000/svg">
<rect width="32" height="32" rx="16" fill="black"/>
<path d="M16 20.6668C14.4667 20.6668 11.7334 20.5335 10.6 20.2668C10.1334 20.1335 9.80004 19.8002 9.66671 19.3335C9.46671 18.6002 9.33337 17.0668 9.33337 16.0002C9.33337 14.9335 9.46671 13.4002 9.66671 12.6668C9.80004 12.2002 10.1334 11.8668 10.6 11.7335C11.7334 11.4668 14.4667 11.3335 16 11.3335C17.5334 11.3335 20.2667 11.4668 21.4 11.7335C21.8667 11.8668 22.2 12.2002 22.3334 12.6668C22.5334 13.4002 22.6667 14.9335 22.6667 16.0002C22.6667 17.0668 22.5334 18.6002 22.3334 19.3335C22.2 19.8002 21.8667 20.1335 21.4 20.2668C20.2667 20.5335 17.5334 20.6668 16 20.6668Z" stroke="white" stroke-linecap="round" stroke-linejoin="round"/>
<path d="M14.6666 18L18 16L14.6666 14V18Z" stroke="white" stroke-linecap="round" stroke-linejoin="round"/>
</svg>
