<svg width="16" height="16" viewBox="0 0 16 16" fill="none" xmlns="http://www.w3.org/2000/svg">
<path d="M8.00004 12.6663C6.46671 12.6663 3.73337 12.533 2.60004 12.2663C2.13337 12.133 1.80004 11.7997 1.66671 11.333C1.46671 10.5997 1.33337 9.06634 1.33337 7.99967C1.33337 6.93301 1.46671 5.39967 1.66671 4.66634C1.80004 4.19967 2.13337 3.86634 2.60004 3.73301C3.73337 3.46634 6.46671 3.33301 8.00004 3.33301C9.53337 3.33301 12.2667 3.46634 13.4 3.73301C13.8667 3.86634 14.2 4.19967 14.3334 4.66634C14.5334 5.39967 14.6667 6.93301 14.6667 7.99967C14.6667 9.06634 14.5334 10.5997 14.3334 11.333C14.2 11.7997 13.8667 12.133 13.4 12.2663C12.2667 12.533 9.53337 12.6663 8.00004 12.6663Z" stroke="currentColor" stroke-linecap="round" stroke-linejoin="round"/>
<path d="M6.66663 10L9.99996 8L6.66663 6V10Z" stroke="currentColor" stroke-linecap="round" stroke-linejoin="round"/>
</svg>
